<svg width="21" height="21" fill="none" xmlns="http://www.w3.org/2000/svg"><path d="M20.08 19.095l-.914-2.556a.777.777 0 00-.731-.515h-.512V10.64h.512a.772.772 0 00.776-.768V7.315a.763.763 0 00-.374-.66l-7.94-4.796a.775.775 0 00-.813 0l-7.94 4.806a.768.768 0 00-.374.65v2.557c0 .424.347.768.777.768h.53v5.393h-.53a.777.777 0 00-.731.515L.92 19.104a.756.756 0 00.1.696.795.795 0 00.63.325h17.69a.758.758 0 00.63-.325.755.755 0 00.11-.705zm-3.72-3.062h-1.187V10.64h1.188v5.393zm-8.98 0V10.64h6.249v5.393h-6.25zM3.323 7.749l7.163-4.328L17.65 7.75v1.355H3.323V7.749zm1.307 2.89h1.188v5.394H4.63V10.64zM2.748 18.58l.356-1.02h14.782l.366 1.02H2.748z" fill="#0028D2"/></svg>