<svg width="92" height="92" fill="none" xmlns="http://www.w3.org/2000/svg"><path fill-rule="evenodd" clip-rule="evenodd" d="M89 46c0 23.748-19.252 43-43 43S3 69.748 3 46 22.252 3 46 3s43 19.252 43 43zm3 0c0 25.405-20.595 46-46 46S0 71.405 0 46 20.595 0 46 0s46 20.595 46 46zM63.318 24.917H28.042a3.771 3.771 0 00-3.765 3.78v35.246c0 2.081 1.685 3.78 3.765 3.78h35.283a3.776 3.776 0 003.765-3.78V28.696c-.007-2.088-1.699-3.78-3.772-3.78zm1.255 39.026c0 .696-.562 1.26-1.255 1.26H28.042a1.257 1.257 0 01-1.255-1.26V37.508h37.786v26.435zm0-28.955H26.787v-6.292c0-.696.562-1.26 1.255-1.26h35.283c.693 0 1.255.564 1.255 1.26v6.292h-.007zm-23.15 26.338a1.258 1.258 0 001.65-.661l7.523-17.624a1.267 1.267 0 00-.659-1.656 1.258 1.258 0 00-1.65.66L40.764 59.67c-.27.64.021 1.378.659 1.657zm-4.056-3.954l-6.268-5.032c-.624-.508-.624-1.468 0-1.963l6.268-5.032a1.245 1.245 0 011.761.195 1.256 1.256 0 01-.194 1.768l-5.047 4.05 5.047 4.052c.54.431.624 1.225.194 1.768a1.25 1.25 0 01-1.761.194zm14.858-.194c.43.542 1.22.633 1.76.194l6.269-5.032a1.263 1.263 0 000-1.963l-6.268-5.032a1.25 1.25 0 00-1.761.195 1.262 1.262 0 00.194 1.768l5.047 4.05-5.047 4.052a1.262 1.262 0 00-.194 1.768zm-20.342-25.97c0 .697-.562 1.26-1.255 1.26a1.257 1.257 0 01-1.255-1.26c0-.695.562-1.259 1.255-1.259.693 0 1.255.564 1.255 1.26zm3.765 1.26c.693 0 1.255-.563 1.255-1.26 0-.695-.562-1.259-1.255-1.259-.694 0-1.255.564-1.255 1.26 0 .696.562 1.26 1.255 1.26zm6.267-1.26c0 .697-.562 1.26-1.255 1.26a1.257 1.257 0 01-1.255-1.26c0-.695.562-1.259 1.255-1.259.693 0 1.255.564 1.255 1.26zm18.81-1.259h-7.523c-.693 0-1.255.564-1.255 1.26 0 .696.562 1.26 1.255 1.26h7.523c.693 0 1.255-.564 1.255-1.26 0-.696-.562-1.26-1.255-1.26z" fill="url(#paint0_linear)"/><defs><linearGradient id="paint0_linear" x1="2.316" y1="0" x2="73.16" y2="103.044" gradientUnits="userSpaceOnUse"><stop offset=".046" stop-color="#7BB6C8"/><stop offset=".728" stop-color="#535FD4"/></linearGradient></defs></svg>