<svg width="92" height="92" fill="none" xmlns="http://www.w3.org/2000/svg"><path fill-rule="evenodd" clip-rule="evenodd" d="M89 46c0 23.748-19.252 43-43 43S3 69.748 3 46 22.252 3 46 3s43 19.252 43 43zm3 0c0 25.405-20.595 46-46 46S0 71.405 0 46 20.595 0 46 0s46 20.595 46 46zm-39.1-6.944l7.792-6.749 1.064 1.802c.516 1.043 1.191.269 1.191.269l7.712-12.39c.095-.75-.746-.64-.746-.64l-6.545 6.203-1.135-1.755c-.477-.837-1.303.459-1.303.459l-8.704 12.247c.063.688.675.553.675.553zm8.657.9a1.385 1.385 0 00-.984-.403 1.4 1.4 0 00-.985.403l-16.17 16.096a4.968 4.968 0 01-3.526 1.446 4.982 4.982 0 01-3.526-1.446l-.35-.347a4.937 4.937 0 010-7.01L52.202 32.6a1.37 1.37 0 00.405-.98c0-.364-.143-.72-.405-.98l-7.863-7.823a1.395 1.395 0 00-1.961 0L26.192 38.921a18.61 18.61 0 00-5.52 13.283 18.61 18.61 0 005.52 13.283l.35.348c3.557 3.54 8.299 5.491 13.35 5.491s9.792-1.951 13.35-5.491L69.42 49.739c.54-.538.54-1.415 0-1.952l-7.863-7.83zm-.182 13.876l-4.217-4.196-1.97 1.952 4.217 4.196-8.124 8.091c-3.034 3.019-7.077 4.686-11.39 4.686a16.034 16.034 0 01-11.38-4.686l-.35-.348a15.869 15.869 0 01-4.709-11.323 15.9 15.9 0 014.71-11.331l15.193-15.116 5.9 5.863-5.098 5.073-4.225-4.204-1.962 1.96 4.217 4.196-8.132 8.099a7.703 7.703 0 000 10.92l.349.348a7.74 7.74 0 005.488 2.26 7.74 7.74 0 005.488-2.26l15.2-15.124 5.894 5.87-5.1 5.074z" fill="url(#paint0_linear)"/><defs><linearGradient id="paint0_linear" x1="-59.97" y1="-34.268" x2="-54.294" y2="83.725" gradientUnits="userSpaceOnUse"><stop stop-color="#EB6E69"/><stop offset="1" stop-color="#B482F2"/></linearGradient></defs></svg>