<svg width="92" height="92" fill="none" xmlns="http://www.w3.org/2000/svg"><path fill-rule="evenodd" clip-rule="evenodd" d="M89 46c0 23.748-19.252 43-43 43S3 69.748 3 46 22.252 3 46 3s43 19.252 43 43zm3 0c0 25.405-20.595 46-46 46S0 71.405 0 46 20.595 0 46 0s46 20.595 46 46zM22.095 34.544c.125.314.374.563.689.694l9.493 4.011a1.278 1.278 0 001.677-.68l.117-.277 5.509 2.338a6.478 6.478 0 011.267-2.243l-5.78-2.44 3.465-8.16a1.271 1.271 0 00-.68-1.674l-9.494-4.01a1.27 1.27 0 00-.982-.008 1.257 1.257 0 00-.695.687l-4.578 10.79c-.132.307-.14.658-.008.972zm2.864-1.154l3.582-8.438 7.127 3.01-3.582 8.43-7.127-3.002zm7.918 34.798a1.28 1.28 0 00.638 1.695c.168.08.351.117.527.117.49 0 .952-.278 1.172-.752l3.97-8.738h5.56v8.175c0 .709.571 1.278 1.282 1.278.71 0 1.281-.57 1.281-1.278v-8.183h5.56l3.97 8.738a1.279 1.279 0 001.7.636 1.28 1.28 0 00.637-1.695L50.64 49.419a1.268 1.268 0 00-1.15-.745H47.3v-1.819a4.448 4.448 0 002.476-1.914l3.684 1.556a1.278 1.278 0 001.677-.68l.206-.482 9.046 3.821-.168.402a1.278 1.278 0 001.179 1.783c.498 0 .974-.293 1.18-.775l3.325-7.759a1.278 1.278 0 00-.674-1.68 1.284 1.284 0 00-1.685.672l-.19.446-7.032-2.966-1.004 2.352 7.01 2.959-.937 2.214-9.054-3.836 2.146-5.048a1.27 1.27 0 00-.68-1.673L40.45 28.919l-1.003 2.352 16.18 6.831-2.343 5.53-2.872-1.212a4.39 4.39 0 00-4.387-4.142 4.393 4.393 0 00-4.395 4.383 4.39 4.39 0 003.113 4.194v1.812h-2.161c-.015 0-.03 0-.037.007a1.273 1.273 0 00-1.15.745l-8.519 18.77zm14.43-16.964h1.341l3.054 6.721h-4.395v-6.721zm-3.12-8.563a1.83 1.83 0 011.831-1.826 1.83 1.83 0 011.832 1.826 1.83 1.83 0 01-1.832 1.827 1.83 1.83 0 01-1.83-1.827zm-3.845 15.284l3.047-6.721h1.347v6.721h-4.394z" fill="url(#paint0_linear)"/><defs><linearGradient id="paint0_linear" x1="-8.46" y1="-8.364" x2="97.565" y2="37.927" gradientUnits="userSpaceOnUse"><stop stop-color="#2988AF"/><stop offset="1" stop-color="#70CFDD"/></linearGradient></defs></svg>