<svg width="92" height="92" fill="none" xmlns="http://www.w3.org/2000/svg"><path fill-rule="evenodd" clip-rule="evenodd" d="M89 46c0 23.748-19.252 43-43 43S3 69.748 3 46 22.252 3 46 3s43 19.252 43 43zm3 0c0 25.405-20.595 46-46 46S0 71.405 0 46 20.595 0 46 0s46 20.595 46 46zm-35.244-7.104a5.157 5.157 0 014.652 2.87c.87 1.745.72 3.755-.406 5.416L49.08 66.888l-.052.076c-.886 1.276-2.491 1.752-3.91 1.148-1.432-.612-2.227-2.077-1.98-3.656l1.8-11.262h-7.157c-1.966 0-3.744-1.102-4.637-2.885-.87-1.737-.72-3.822.39-5.453l12.005-19.73.053-.075c.637-.913 1.613-1.412 2.633-1.412.428 0 .863.083 1.283.264 1.44.605 2.236 2.077 1.988 3.649l-1.838 11.344h7.098zm1.943 6.715l.053-.075c.757-1.08.397-2.085.21-2.47-.42-.831-1.246-1.33-2.206-1.33H48.03a1.36 1.36 0 01-1.05-.498 1.45 1.45 0 01-.308-1.156l2.1-12.991c.053-.333-.142-.484-.314-.56-.233-.097-.45-.052-.593.13l-.023.045c-.12.196-11.944 19.6-12.057 19.796-.765 1.096-.39 2.123-.195 2.516a2.404 2.404 0 002.191 1.344h8.786c.405 0 .788.181 1.05.498.263.318.375.74.308 1.156l-2.07 12.908c-.053.333.142.484.314.56.075.03.15.045.218.045.142 0 .277-.068.398-.22l11.914-19.698z" fill="url(#paint0_linear)"/><defs><linearGradient id="paint0_linear" x1="0" y1="70.398" x2="78.514" y2="6.201" gradientUnits="userSpaceOnUse"><stop stop-color="#F6D365"/><stop offset="1" stop-color="#FDA085"/></linearGradient></defs></svg>