<svg viewBox="0 0 32 32" xmlns="http://www.w3.org/2000/svg"><g opacity=".7" fill-rule="evenodd" clip-rule="evenodd"><path d="M16 29.405c7.404 0 13.405-6.001 13.405-13.405 0-7.404-6.001-13.405-13.405-13.405C8.596 2.595 2.595 8.596 2.595 16c0 7.404 6.001 13.405 13.405 13.405zM16 32c8.837 0 16-7.163 16-16S24.837 0 16 0 0 7.163 0 16s7.163 16 16 16z"/><path d="M16.085 9.333c.69 0 1.248.597 1.248 1.334 0 .736-.558 1.333-1.248 1.333s-1.248-.597-1.248-1.333c0-.737.559-1.334 1.248-1.334zM16 13.94c.736 0 1.333.638 1.333 1.425v5.878c0 .787-.597 1.425-1.333 1.425s-1.333-.638-1.333-1.425v-5.878c0-.787.597-1.425 1.333-1.425z"/></g></svg>