<svg viewBox="0 0 20 20" fill="none" xmlns="http://www.w3.org/2000/svg"><g clip-path="url(#clip0)"><path d="M19.6 14.572L12.595 2.436C11.449.43 8.555.43 7.414 2.436L.405 14.572c-1.145 2.005.28 4.496 2.59 4.496h13.992c2.31 0 3.76-2.516 2.615-4.496zM10 16.375c-.61 0-1.115-.506-1.115-1.115 0-.61.506-1.116 1.115-1.116.61 0 1.116.506 1.091 1.144.029.58-.506 1.087-1.09 1.087zm1.017-7.212c-.05.864-.103 1.725-.152 2.59-.025.279-.025.534-.025.81a.84.84 0 01-.84.811.822.822 0 01-.84-.786c-.074-1.346-.152-2.668-.226-4.014-.025-.354-.05-.712-.078-1.066 0-.585.329-1.067.864-1.219a1.12 1.12 0 011.297.634c.078.177.103.354.103.56-.025.564-.078 1.124-.103 1.68z" fill="#EF6700"/></g></svg>