<svg width="21" height="21" fill="none" xmlns="http://www.w3.org/2000/svg"><path d="M13.03 17.367c1.854 0 3.363-1.496 3.363-3.334V3.334C16.393 1.495 14.884 0 13.029 0H5.113C3.258 0 1.75 1.495 1.75 3.334v10.699c0 1.838 1.508 3.334 3.363 3.334h7.916zm-9.687-3.334V3.334c0-.966.796-1.755 1.77-1.755h7.916c.975 0 1.771.79 1.771 1.755v10.699c0 .966-.796 1.755-1.77 1.755H5.112c-.974 0-1.77-.79-1.77-1.755zM19.25 2.647v11.47c0 3.315-2.717 6.008-6.061 6.008H4.982a.792.792 0 01-.796-.79c0-.436.356-.789.796-.789h8.207c2.473 0 4.468-1.987 4.468-4.43V2.646c0-.436.356-.789.797-.789.44 0 .796.353.796.79zM9.076 11.014c2.183 0 3.953-1.755 3.953-3.919s-1.77-3.919-3.953-3.919-3.953 1.755-3.953 3.92c0 .89.309 1.755.87 2.451a3.944 3.944 0 003.083 1.467zm0-6.259c1.302 0 2.36 1.05 2.36 2.34a2.352 2.352 0 01-2.36 2.34 2.371 2.371 0 01-1.846-.872 2.311 2.311 0 01-.515-1.458c0-1.3 1.059-2.35 2.361-2.35zm3.213 8.479c0 .437-.356.79-.796.79H6.659a.792.792 0 01-.796-.79c0-.437.356-.79.796-.79h4.834c.44 0 .796.353.796.79z" fill="#0028D2"/></svg>