<svg xmlns="http://www.w3.org/2000/svg" viewBox="0 0 64 64"><path d="M0 32C0 14.3 14.3 0 32 0s32 14.3 32 32-14.3 32-32 32S0 49.7 0 32z" fill="#fff"/><linearGradient id="a" gradientUnits="userSpaceOnUse" x1="9.805" y1="38.08" x2="49.999" y2="30.398" gradientTransform="matrix(1 0 0 -1 0 66)"><stop offset="0" stop-color="#6a70e1"/><stop offset="1" stop-color="#8ec5fc"/></linearGradient><path d="M33.7 23.6l.3-.2 5.8 5.8c.2-.2.4-.5.6-.7.2-.2.4-.4.7-.6l-5.8-5.8.2-.4c.6-1.4.3-3-.7-4-.7-.7-1.6-1.1-2.6-1.1s-1.9.4-2.6 1.1c-1.4 1.4-1.4 3.7 0 5.1 1.1 1.1 2.7 1.4 4.1.8zm-3.1-4.9c.9-.9 2.3-.9 3.1 0 .4.4.6 1 .6 1.6 0 .6-.2 1.1-.6 1.6-.4.4-1 .6-1.6.6-.6 0-1.1-.2-1.6-.6-.4-.4-.6-1-.6-1.6.1-.6.3-1.1.7-1.6zm.1 22.1l-.3.2-5.7-5.7c-.2.2-.4.5-.6.7-.2.2-.4.4-.7.6l5.7 5.7-.2.4c-.6 1.4-.3 3 .7 4 .7.7 1.6 1.1 2.6 1.1s1.9-.4 2.6-1.1c1.4-1.4 1.4-3.7 0-5.1-1.1-1.1-2.7-1.4-4.1-.8zm3.1 4.8c-.4.4-1 .6-1.6.6-.6 0-1.1-.2-1.6-.6-.4-.4-.6-1-.6-1.6 0-.6.2-1.1.6-1.6.9-.9 2.3-.9 3.1 0 .4.4.6 1 .6 1.6.1.7-.1 1.2-.5 1.6zm12.8-16c-1.4-1.4-3.7-1.4-5.1 0-1.1 1.1-1.3 2.7-.7 4l.2.4-5.8 5.9c.2.2.5.4.7.6.2.2.4.4.6.7l5.8-5.9.4.2c1.4.6 3 .3 4-.7 1.3-1.5 1.3-3.8-.1-5.2zm-.9 4.2c-.4.4-1 .6-1.6.6-.6 0-1.1-.2-1.6-.6-.4-.4-.6-1-.6-1.6 0-.6.2-1.1.6-1.6.4-.4 1-.6 1.6-.6.6 0 1.1.2 1.6.6.4.4.6 1 .6 1.6 0 .6-.2 1.1-.6 1.6zm-22.1-3.1l-.2-.3 5.9-5.9c-.2-.2-.5-.4-.7-.6-.2-.2-.4-.4-.6-.7l-5.9 5.9-.4-.2c-.5-.2-1-.3-1.5-.3-.9 0-1.9.4-2.6 1-1.4 1.4-1.4 3.7 0 5.1.7.7 1.6 1 2.5 1 1 0 1.9-.4 2.6-1.1 1.2-.9 1.5-2.5.9-3.9zm-1.7 3.1c-.4.4-1 .6-1.6.6-.6 0-1.1-.2-1.6-.6-.9-.9-.9-2.3 0-3.1.4-.4 1-.6 1.6-.6.6 0 1.1.2 1.6.6.9.8.9 2.2 0 3.1z" fill="url(#a)"/></svg>