<svg width="92" height="92" fill="none" xmlns="http://www.w3.org/2000/svg"><path fill-rule="evenodd" clip-rule="evenodd" d="M89 46c0 23.748-19.252 43-43 43S3 69.748 3 46 22.252 3 46 3s43 19.252 43 43zm3 0c0 25.405-20.595 46-46 46S0 71.405 0 46 20.595 0 46 0s46 20.595 46 46zM24.833 25.367h42.341c1.93 0 3.493 1.57 3.493 3.492v27.554a3.496 3.496 0 01-3.493 3.492h-14.73v4.727h2.912c.74 0 1.334.594 1.334 1.334a1.33 1.33 0 01-1.334 1.334H36.652a1.33 1.33 0 01-1.334-1.334c0-.74.594-1.334 1.334-1.334h2.913v-4.728H24.833a3.498 3.498 0 01-3.5-3.491V28.859a3.503 3.503 0 013.5-3.492zm17.4 39.264h7.534v-4.727h-7.534v4.727zm24.941-7.395a.835.835 0 00.824-.823V28.859a.835.835 0 00-.824-.824h-42.34a.842.842 0 00-.832.824v27.554c0 .442.381.823.831.823h42.341zm-19.87-17.932h5.337a1.34 1.34 0 011.335 1.334v4.384a1.33 1.33 0 01-1.335 1.334h-4.003v1.723h4.003c.74 0 1.335.595 1.335 1.334 0 .74-.595 1.335-1.335 1.335h-5.337a1.33 1.33 0 01-1.335-1.334V45.03c0-.74.595-1.335 1.335-1.335h4.003v-1.723h-4.003a1.33 1.33 0 01-1.335-1.334c0-.74.595-1.334 1.335-1.334zm9.66-4.788H43.226a.88.88 0 00-.145.015.594.594 0 01-.061.008c-.021.002-.042.003-.061.007a.668.668 0 00-.122.038l-.039.012c-.03.01-.059.018-.091.034a.46.46 0 00-.076.042 1.386 1.386 0 01-.05.03l-.019.01a.466.466 0 00-.076.048.535.535 0 00-.073.055c-.01.01-.022.019-.034.029a.708.708 0 00-.046.038.768.768 0 01-.045.038c-.03.03-.061.068-.092.106a.874.874 0 01-.026.033.523.523 0 00-.075.112.453.453 0 01-.036.061.672.672 0 00-.061.13.038.038 0 00-.01.016c0 .004-.003.009-.005.014l-3.668 10.08-2.036-5.627a1.332 1.332 0 00-1.708-.8 1.332 1.332 0 00-.8 1.707l3.232 8.951c.1.427.405.793.84.953a.048.048 0 00.022.004c.008 0 .015 0 .023.004.107.038.221.053.328.06a.15.15 0 01.038.009c.013.003.027.007.038.007h.015a.149.149 0 00.042-.008c.014-.003.027-.007.042-.007a1.19 1.19 0 00.328-.061c.008-.004.015-.004.023-.004s.015 0 .023-.004a1.33 1.33 0 00.846-.953l4.56-12.519h12.78a1.33 1.33 0 001.334-1.334c0-.74-.58-1.334-1.32-1.334z" fill="url(#paint0_linear)"/><defs><linearGradient id="paint0_linear" x1="2.316" y1="0" x2="73.16" y2="103.044" gradientUnits="userSpaceOnUse"><stop offset=".046" stop-color="#7BB6C8"/><stop offset=".728" stop-color="#535FD4"/></linearGradient></defs></svg>