<svg width="92" height="92" fill="none" xmlns="http://www.w3.org/2000/svg"><path fill-rule="evenodd" clip-rule="evenodd" d="M89 46c0 23.748-19.252 43-43 43S3 69.748 3 46 22.252 3 46 3s43 19.252 43 43zm3 0c0 25.405-20.595 46-46 46S0 71.405 0 46 20.595 0 46 0s46 20.595 46 46zM69.913 65.526h2.222c.663 0 1.198.552 1.198 1.237 0 .684-.535 1.237-1.198 1.237H19.199C18.535 68 18 67.447 18 66.763c0-.685.535-1.237 1.199-1.237h2.213V38.383h-1.063c-.663 0-1.198-.553-1.198-1.238 0-.684.535-1.237 1.198-1.237h1.07v-2.581c0-.685.536-1.237 1.2-1.237.655 0 1.198.552 1.198 1.237V35.9h3.124v-5.88h2.797v10.91h3.14V27.553h-6.48c-.775 0-1.398-.643-1.398-1.443s.63-1.443 1.398-1.443h9.82c.775 0 1.398.643 1.398 1.443s-.623 1.443-1.398 1.443h-.543V35.9H41.3v-5.88h2.797v10.91h3.14V27.553h-6.48c-.776 0-1.399-.643-1.399-1.443s.623-1.443 1.399-1.443h9.82c.775 0 1.398.643 1.398 1.443s-.623 1.443-1.398 1.443h-.544V35.9h5.626v-5.88h2.796v10.91h3.14V27.553h-6.48c-.775 0-1.398-.643-1.398-1.443s.623-1.443 1.398-1.443h9.82c.767 0 1.399.643 1.39 1.443 0 .8-.623 1.443-1.398 1.443h-.543v8.355h3.132v-2.581c0-.685.536-1.237 1.199-1.237s1.198.552 1.198 1.237V35.9h1.063c.663 0 1.199.553 1.199 1.237 0 .685-.536 1.237-1.199 1.237h-1.063v27.152zm-8.317-7.39v-14.73h-3.149v14.73c0 .75.647 1.36 1.438 1.36h.272c.791 0 1.439-.61 1.439-1.36zm-14.36 0v-14.73H44.09v14.73c0 .75.647 1.36 1.438 1.36h.271c.792 0 1.439-.61 1.439-1.36zm-14.358 0v-14.73H29.73v14.73c0 .75.647 1.36 1.438 1.36h.272c.79 0 1.438-.61 1.438-1.36zM26.95 38.374h-3.132v27.143h43.74V38.374h-3.133v19.753c0 2.343-1.902 4.248-4.235 4.248h-.272c-2.333 0-4.234-1.905-4.234-4.248V38.374h-5.626v19.753c0 2.343-1.901 4.248-4.235 4.248h-.271c-2.333 0-4.235-1.905-4.235-4.248V38.374H35.69v19.753c0 2.343-1.902 4.248-4.235 4.248h-.272c-2.333 0-4.235-1.905-4.235-4.248V38.374z" fill="url(#paint0_linear)"/><defs><linearGradient id="paint0_linear" x1="32.517" y1="61.119" x2="124.305" y2="-43.086" gradientUnits="userSpaceOnUse"><stop stop-color="#A18CD1"/><stop offset="1" stop-color="#FBC2EB"/></linearGradient></defs></svg>