<svg width="92" height="92" fill="none" xmlns="http://www.w3.org/2000/svg"><path fill-rule="evenodd" clip-rule="evenodd" d="M89 46c0 23.748-19.252 43-43 43S3 69.748 3 46 22.252 3 46 3s43 19.252 43 43zm3 0c0 25.405-20.595 46-46 46S0 71.405 0 46 20.595 0 46 0s46 20.595 46 46zm-25.649-6.954v11.97a1.32 1.32 0 001.314 1.34c.735 0 1.327-.601 1.327-1.332V39.046c0-3.778-3.067-6.854-6.833-6.854h-2.785a2.353 2.353 0 01-2.223-1.6l-.555-1.635a5.002 5.002 0 00-4.734-3.401H40.13c-2.1 0-3.99 1.331-4.704 3.314l-.635 1.766a2.345 2.345 0 01-2.208 1.556h-2.75c-3.766 0-6.833 3.076-6.833 6.854V60.23c0 3.785 3.067 6.86 6.834 6.853h32.333c3.767 0 6.833-3.076 6.833-6.853 0-.738-.591-1.332-1.327-1.332s-1.328.6-1.328 1.332a4.194 4.194 0 01-4.185 4.197H29.833a4.194 4.194 0 01-4.185-4.197V39.046a4.194 4.194 0 014.185-4.198h2.749c2.1 0 3.99-1.331 4.704-3.314l.635-1.766a2.345 2.345 0 012.208-1.556h11.733c1.01 0 1.898.644 2.23 1.6l.555 1.635a5.002 5.002 0 004.734 3.401h2.785a4.194 4.194 0 014.185 4.198zM46.09 59.716c6.046 0 10.967-4.936 10.967-11 0-6.066-4.92-11.002-10.968-11.002-6.046 0-10.967 4.936-10.967 11.001 0 6.065 4.92 11 10.968 11zm0-19.346c4.589 0 8.32 3.742 8.32 8.345 0 4.603-3.738 8.345-8.32 8.345-4.582 0-8.313-3.75-8.313-8.345 0-4.596 3.723-8.345 8.313-8.345z" fill="url(#paint0_linear)"/><defs><linearGradient id="paint0_linear" x1="32.517" y1="61.119" x2="124.305" y2="-43.086" gradientUnits="userSpaceOnUse"><stop stop-color="#A18CD1"/><stop offset="1" stop-color="#FBC2EB"/></linearGradient></defs></svg>