<svg width="92" height="92" fill="none" xmlns="http://www.w3.org/2000/svg"><path fill-rule="evenodd" clip-rule="evenodd" d="M89 46c0 23.748-19.252 43-43 43S3 69.748 3 46 22.252 3 46 3s43 19.252 43 43zm3 0c0 25.405-20.595 46-46 46S0 71.405 0 46 20.595 0 46 0s46 20.595 46 46zM24.947 56.542h4.019v3.955c0 .73.589 1.316 1.308 1.316h3.932v3.954c0 .732.59 1.316 1.309 1.316h31.53a1.31 1.31 0 001.308-1.316V36.775c0-.73-.588-1.316-1.308-1.316h-3.932v-3.954c0-.732-.589-1.316-1.309-1.316h-3.932v-3.955c0-.731-.589-1.316-1.308-1.316H24.947c-.72 0-1.309.592-1.309 1.316v28.993c0 .724.589 1.316 1.308 1.316zm1.315-13.144c5.27.255 9.522 1.988 14.006 3.823l.061.025c4.517 1.841 9.174 3.74 14.934 3.996v2.668h-29V43.398zm28.994 5.205c-4.07-.198-7.538-1.28-10.976-2.61 3.337-1.294 6.869-2.398 10.976-2.595v5.205zm10.48-10.506v26.355H36.83v-2.64h24.982a1.31 1.31 0 001.308-1.315v-22.4h2.617zm-5.24-5.27V59.18H31.59v-2.64h24.974a1.31 1.31 0 001.308-1.315v-22.4h2.624zm-5.24-5.271v13.21c-5.662.256-10.336 2.105-14.5 3.816-4.376-1.791-8.926-3.568-14.494-3.816v-13.21h28.994zM36.83 40.729c2.893 0 5.24-2.361 5.24-5.27 0-2.91-2.347-5.271-5.24-5.271-2.892 0-5.24 2.36-5.24 5.27 0 2.91 2.348 5.271 5.24 5.271zm0-7.902a2.635 2.635 0 012.624 2.639 2.635 2.635 0 01-2.624 2.639 2.635 2.635 0 01-2.623-2.64 2.635 2.635 0 012.623-2.638z" fill="url(#paint0_linear)"/><defs><linearGradient id="paint0_linear" x1="2.316" y1="0" x2="73.16" y2="103.044" gradientUnits="userSpaceOnUse"><stop offset=".046" stop-color="#7BB6C8"/><stop offset=".728" stop-color="#535FD4"/></linearGradient></defs></svg>