<svg width="92" height="92" fill="none" xmlns="http://www.w3.org/2000/svg"><path fill-rule="evenodd" clip-rule="evenodd" d="M89 46c0 23.748-19.252 43-43 43S3 69.748 3 46 22.252 3 46 3s43 19.252 43 43zm3 0c0 25.405-20.595 46-46 46S0 71.405 0 46 20.595 0 46 0s46 20.595 46 46zM67.42 33.73a1.304 1.304 0 011.838 0 1.321 1.321 0 010 1.853c-2.13 2.122-4.847 2.472-11.423 2.412l-4.46-.067c-1.78-.037-3.798-.074-5.757.127l-1.102.112 7.96 7.959.12-1.095c.104-.982.141-2.859.149-3.41a1.299 1.299 0 011.296-1.258c.35 0 .677.134.923.387s.38.589.372.946c-.119 5.659-1.348 9.701-3.649 12.002-3.835 3.834-9.867 3.715-14.268 3.626l-4.564-.067c-1.14-.015-2.093-.015-2.927-.007l-1.266.007L35.406 62l.014-1.258a1.106 1.106 0 011.103-1.087h.208c.35 0 .678.141.923.387.246.245.373.588.365.93-.119 4.148-.87 6.701-2.435 8.287a1.304 1.304 0 01-1.839 0 1.294 1.294 0 01-.38-.923c0-.35.134-.677.38-.923.454-.462.82-1.08 1.095-1.906l.104-.313-7.492-7.49-.067-.067-.312.104c-.73.246-1.281.596-1.847 1.162-.246.245-.573.38-.924.38-.35 0-.677-.135-.923-.38a1.303 1.303 0 010-1.84c2.212-2.21 4.297-2.486 11.416-2.412l4.513.067.076.001c1.783.03 3.794.063 5.71-.142l1.102-.12-8.005-8.004-.127 1.088a29.93 29.93 0 00-.179 2.494c-.022.707-.588 1.243-1.318 1.243-.342 0-.685-.141-.923-.394a1.279 1.279 0 01-.358-.938c.209-5.212 1.37-8.712 3.657-10.998 3.82-3.827 9.814-3.716 14.225-3.634l.05.001 4.565.067a97.98 97.98 0 003.001-.007l1.244-.023-4.751-4.75-.008 1.258a1.133 1.133 0 01-1.132 1.117h-.171c-.35 0-.685-.141-.93-.394a1.292 1.292 0 01-.373-.939c.112-4.49.715-6.574 2.405-8.264a1.304 1.304 0 011.84 0 1.303 1.303 0 010 1.839c-.5.491-.842 1.072-1.095 1.831l-.104.313 7.491 7.49.067.067.313-.104c.767-.26 1.355-.603 1.84-1.087zM53.522 49.334l.15-.335-10.031-10.03-.335.15c-1.043.461-1.87 1.005-2.532 1.668-.656.655-1.192 1.459-1.639 2.457l-.149.335 9.987 9.984.074.075.335-.15c1.02-.454 1.825-.99 2.465-1.63.67-.67 1.221-1.497 1.675-2.524z" fill="url(#paint0_linear)"/><defs><linearGradient id="paint0_linear" x1=".296" y1="57.24" x2="72.33" y2="63.294" gradientUnits="userSpaceOnUse"><stop stop-color="#7EDA61"/><stop offset="1" stop-color="#5DC83B"/></linearGradient></defs></svg>