<svg width="92" height="92" fill="none" xmlns="http://www.w3.org/2000/svg"><path fill-rule="evenodd" clip-rule="evenodd" d="M89 46c0 23.748-19.252 43-43 43S3 69.748 3 46 22.252 3 46 3s43 19.252 43 43zm3 0c0 25.405-20.595 46-46 46S0 71.405 0 46 20.595 0 46 0s46 20.595 46 46zM49.377 31.813l-.58.261a5.996 5.996 0 01-6.693-1.208 5.977 5.977 0 010-8.453 5.939 5.939 0 014.228-1.746c1.6 0 3.094.62 4.236 1.746 1.747 1.738 2.237 4.43 1.208 6.69l-.269.588 9.648 9.596a10.765 10.765 0 00-2.123 2.122l-9.655-9.596zm-.441-7.784a3.683 3.683 0 00-5.2 0 3.64 3.64 0 00-1.069 2.594c0 .98.384 1.902 1.078 2.595a3.646 3.646 0 002.596 1.077 3.66 3.66 0 002.595-1.077 3.648 3.648 0 001.077-2.595c0-.979-.383-1.9-1.077-2.595zM43.28 60.846l.58-.262a6.054 6.054 0 016.717 1.216c2.326 2.334 2.326 6.128 0 8.454A5.94 5.94 0 0146.349 72c-1.6 0-3.102-.62-4.228-1.746a6.009 6.009 0 01-1.208-6.708l.269-.587-9.444-9.441a10.765 10.765 0 002.106-2.105l9.436 9.433zm3.06 8.861a3.66 3.66 0 002.596-1.077 3.67 3.67 0 001.086-2.595c0-.979-.384-1.901-1.078-2.595a3.683 3.683 0 00-5.2 0 3.648 3.648 0 00-1.077 2.595c0 .98.384 1.901 1.078 2.595a3.646 3.646 0 002.596 1.077zm15.476-27.613c2.326-2.325 6.113-2.333 8.44-.008 2.326 2.326 2.326 6.12 0 8.462-1.74 1.746-4.433 2.236-6.694 1.207l-.587-.269-9.607 9.751c-.302-.4-.629-.775-.98-1.126-.35-.35-.726-.685-1.134-.987l9.615-9.76-.261-.579a5.992 5.992 0 011.208-6.69zm4.22 7.907a3.65 3.65 0 002.595-1.077 3.648 3.648 0 001.078-2.595c0-.979-.384-1.901-1.078-2.595a3.65 3.65 0 00-2.595-1.077 3.65 3.65 0 00-2.596 1.077 3.648 3.648 0 00-1.077 2.595c0 .98.383 1.901 1.077 2.595a3.65 3.65 0 002.596 1.077zm-34.224-6.715l.261.579a6.036 6.036 0 01-1.208 6.7 5.94 5.94 0 01-4.228 1.745h-.008a5.928 5.928 0 01-4.212-1.738 5.978 5.978 0 010-8.453 5.982 5.982 0 014.228-1.738 5.96 5.96 0 012.465.53l.588.261 9.786-9.84a10.754 10.754 0 002.114 2.113l-9.786 9.84zM26.645 50a3.65 3.65 0 002.596-1.077 3.688 3.688 0 000-5.198 3.65 3.65 0 00-2.596-1.077 3.65 3.65 0 00-2.595 1.077 3.688 3.688 0 000 5.198A3.65 3.65 0 0026.645 50z" fill="url(#paint0_linear)"/><defs><linearGradient id="paint0_linear" x1="0" y1="70.398" x2="78.514" y2="6.201" gradientUnits="userSpaceOnUse"><stop stop-color="#F6D365"/><stop offset="1" stop-color="#FDA085"/></linearGradient></defs></svg>