<svg width="92" height="92" fill="none" xmlns="http://www.w3.org/2000/svg"><path fill-rule="evenodd" clip-rule="evenodd" d="M89 46c0 23.748-19.252 43-43 43S3 69.748 3 46 22.252 3 46 3s43 19.252 43 43zm3 0c0 25.405-20.595 46-46 46S0 71.405 0 46 20.595 0 46 0s46 20.595 46 46zm-23.956-1.259h4.623v2.503h-6.178a105.975 105.975 0 00-1.841 3.478l-.004.008-.003.006c-2.358 4.602-4.586 8.952-8.483 8.995h-.044c-3.205 0-6.004-4.231-8.515-8.764v15.7h-2.532V47.259H30.251a39.247 39.247 0 001.31-2.51h12.703c-2.047-3.823-5.368-9.984-7.661-9.984h-.014c-2.364.028-4.252 3.71-6.254 7.615l-.004.009-.02.04c-1.978 3.855-4.217 8.222-7.67 10.41a1.272 1.272 0 01-1.75-.38 1.253 1.253 0 01.382-1.736c1.28-.81 2.388-2.03 3.386-3.464H20v-2.51h6.222c.643-1.132 1.25-2.321 1.85-3.496l.002-.005c2.35-4.604 4.579-8.958 8.478-9h.044c3.19 0 5.975 4.18 8.471 8.678V25.333H47.6v19.408h14.874a30.11 30.11 0 00-1.345 2.51H48.46c2.048 3.83 5.361 9.97 7.654 9.97h.015c2.364-.029 4.25-3.71 6.253-7.615l.005-.01.02-.039c1.977-3.856 4.216-8.223 7.67-10.41a1.277 1.277 0 011.75.38 1.253 1.253 0 01-.383 1.736c-1.288.81-2.395 2.037-3.4 3.478z" fill="url(#paint0_linear)"/><defs><linearGradient id="paint0_linear" x1="-14.187" y1="0" x2="105.242" y2="22.824" gradientUnits="userSpaceOnUse"><stop stop-color="#6A70E1"/><stop offset="1" stop-color="#8EC5FC"/></linearGradient></defs></svg>