<svg xmlns="http://www.w3.org/2000/svg" viewBox="0 0 72 72"><linearGradient id="a" gradientUnits="userSpaceOnUse" x1="5.068" y1="12.708" x2="66.513" y2="62.949" gradientTransform="matrix(1 0 0 -1 0 74)"><stop offset="0" stop-color="#f6d365"/><stop offset="1" stop-color="#fda085"/></linearGradient><path d="M0 36C0 16.1 16.1 0 36 0s36 16.1 36 36-16.1 36-36 36S0 55.9 0 36z" fill="url(#a)"/><path d="M30.9 44.8c.1.2 0 .5-.2.6L29 46.7c-.3.2-.5.7-.4 1.1l.7 2v.2c0 .2-.1.3-.3.4-.1 0-.3.1-.5 0l-1.7-1.3c-.3-.2-.8-.2-1.1 0L24 50.4c-.2.2-.5.1-.5 0-.2-.1-.3-.2-.3-.4v-.2l.7-2c.1-.4 0-.8-.4-1.1l-1.7-1.3c-.2-.2-.2-.4-.2-.6.1-.2.2-.4.5-.4h2.2c.5 0 .8-.2.9-.6l.7-2c.1-.3.3-.3.5-.3s.4.1.5.3l.7 2c.1.4.5.6.9.6h2.2c0 .1.2.2.2.4zM49 46.7l1.7-1.3c.2-.2.2-.4.2-.6-.1-.2-.2-.4-.5-.4h-2.2c-.5 0-.8-.2-.9-.6l-.7-2c-.1-.3-.3-.3-.5-.3s-.4.1-.5.3l-.7 2c-.1.4-.5.6-.9.6h-2c-.3 0-.4.2-.5.4-.1.2 0 .5.2.6l1.7 1.3c.3.2.5.7.4 1.1l-.7 2v.2c0 .2.1.3.3.4.1 0 .3.1.5 0l1.7-1.3c.3-.2.8-.2 1.1 0l1.7 1.3c.2.2.5.1.5 0 .2-.1.3-.2.3-.4v-.2l-.7-2c0-.4.1-.9.5-1.1zm-8.6-6.3h-2.2c-.5 0-.8-.2-.9-.6l-.7-2c-.1-.3-.3-.3-.5-.3s-.4.1-.5.3l-.7 2c-.1.4-.5.6-.9.6h-2c-.3 0-.4.2-.5.4-.1.2 0 .5.2.6l1.7 1.3c.3.2.5.7.4 1.1l-.7 2v.2c0 .2.1.3.3.4.1 0 .3.1.5 0l1.7-1.3c.3-.2.8-.2 1.1 0l1.7 1.3c.2.2.5.1.5 0 .2-.1.3-.2.3-.4v-.2l-.7-2c-.1-.4 0-.8.4-1.1l1.7-1.3c.2-.2.2-.4.2-.6.1-.2-.1-.4-.4-.4zM26 37.5c1.5-2.2 3.6-3.9 6.1-4.7l.4-.1-.3-.3c-1.5-1.2-2.3-3-2.3-4.9 0-3.5 2.9-6.4 6.4-6.4 3.5 0 6.4 2.9 6.4 6.4 0 1.9-.9 3.7-2.3 4.9l-.3.3.4.1c2.5.9 4.6 2.5 6 4.7.1.2.2.5.1.7 0 .2-.2.5-.4.6-.4.3-1 .2-1.3-.3-1.9-2.9-5.1-4.6-8.6-4.6s-6.7 1.7-8.6 4.6c-.3.4-.9.5-1.3.3-.6-.3-.7-.9-.4-1.3zm10.2-5.6c2.5 0 4.5-2 4.5-4.5s-2-4.5-4.5-4.5-4.5 2-4.5 4.5 2 4.5 4.5 4.5z" fill="#fff"/></svg>