<svg width="72" height="72" fill="none" xmlns="http://www.w3.org/2000/svg"><path d="M0 36C0 16.118 16.118 0 36 0s36 16.118 36 36-16.118 36-36 36S0 55.882 0 36z" fill="url(#paint0_linear)"/><path fill-rule="evenodd" clip-rule="evenodd" d="M35.686 22.396a.847.847 0 00-.815.003l-4.413 2.443a.847.847 0 10.82 1.483l4.007-2.218 13.166 7.162H35.196a.847.847 0 000 1.694h13.306L42.89 36.07l-7.783 4.31-14.736-8.016 5.285-2.926a.847.847 0 10-.82-1.483l-6.637 3.674c-.576.319-.572 1.171.005 1.486l7 3.807v9.192c0 .29.128.488.305.632.15.122.341.207.51.282l.056.026.003.001c1.883.852 5.049 2.283 9.131 2.283h.04c4.04-.01 7.186-1.433 9.055-2.279h.002l.064-.03c.168-.074.358-.159.508-.28a.776.776 0 00.31-.636v-9.378l5.747-3.181v6.668a2.416 2.416 0 00-1.53 2.245v5.017c0 .468.38.848.847.848h3.131c.468 0 .848-.38.848-.848v-5.017a2.417 2.417 0 00-1.601-2.273v-8.078c0-.309-.175-.6-.446-.746l-16.498-8.974zm-.165 19.691l7.972-4.413v7.892c-1.773.801-4.653 2.069-8.248 2.077h-.035c-3.629 0-6.524-1.27-8.312-2.077v-7.722l7.807 4.246a.855.855 0 00.816-.003zm15.578.38a.72.72 0 011.437 0v4.17H51.1v-4.17zM28.814 26.738a.842.842 0 10-1.484.797.842.842 0 001.484-.797z" fill="#fff"/><defs><linearGradient id="paint0_linear" x1=".232" y1="44.796" x2="56.606" y2="49.535" gradientUnits="userSpaceOnUse"><stop stop-color="#7EDA61"/><stop offset="1" stop-color="#5DC83B"/></linearGradient></defs></svg>