<svg width="1600" height="726" fill="none" xmlns="http://www.w3.org/2000/svg"><path d="M103.639 256.932c-16.42 2.97-34.454-1.393-47.7-11.54-1.333-1.008-1.627-2.366-.82-3.475 2.373-3.262 3.817-5.61 6-8.174 1.09-1.222 2.949-.407 3.936.33 9.974 7.541 23.331 10.773 35.65 8.625 1.215-.204 2.408.531 2.697 1.71a213.28 213.28 0 002.554 9.809c.348 1.17-.671 2.428-2.317 2.715z" fill="url(#paint0_linear_2855:45458)"/><path d="M1287.41 108.154c-12.15-11.446-19.35-28.547-19.05-45.23.02-1.672.94-2.715 2.31-2.724 4.03-.028 6.78-.26 10.14-.026 1.63.15 2.08 2.13 2.07 3.362-.14 12.503 5.19 25.169 14.23 33.804.89.857 1.01 2.253.23 3.186-2.18 2.567-4.3 5.194-6.37 7.88-.74.975-2.36.902-3.56-.252z" fill="url(#paint1_linear_2855:45458)"/><path d="M1503.33 488.067c-14.64-8.021-25.91-22.759-29.82-38.98-.4-1.622.22-2.862 1.55-3.216 3.89-1.043 6.49-1.96 9.8-2.579 1.62-.264 2.55 1.539 2.86 2.733 3 12.136 11.35 23.052 22.28 29.132 1.07.606 1.54 1.928 1.02 3.026a208.987 208.987 0 00-4.18 9.232c-.47 1.128-2.05 1.465-3.51.652z" fill="url(#paint2_linear_2855:45458)"/><path d="M713.324 200.93c6.57-16.987 20.892-31.308 37.879-37.879 1.697-.668 3.129-.171 3.704 1.212 1.689 4.066 3.056 6.747 4.203 10.24.518 1.71-1.298 2.978-2.546 3.478-12.698 5.005-23.305 15.612-28.31 28.31-.501 1.249-1.864 1.943-3.127 1.541a232.48 232.48 0 00-10.591-3.198c-1.288-.342-1.881-2.006-1.212-3.704zm117.958 463.837c11.586-14.053 29.69-23.135 47.882-24.021 1.821-.1 3.024.823 3.133 2.316.323 4.392.776 7.367.764 11.043-.046 1.787-2.169 2.418-3.511 2.5-13.628.75-27.037 7.477-35.786 17.953-.869 1.027-2.381 1.256-3.453.477a232.225 232.225 0 00-9.045-6.371c-1.115-.73-1.153-2.496.016-3.897z" fill="#D2AADF"/><path d="M827.881 218.99c8.058 16.334 8.906 36.57 2.245 53.522-.657 1.702-1.993 2.419-3.399 1.906-4.137-1.509-7.035-2.317-10.383-3.837-1.61-.776-1.314-2.97-.837-4.228 4.911-12.734 4.282-27.723-1.678-40.002-.58-1.213-.168-2.686.983-3.344a232.159 232.159 0 009.523-5.632c1.123-.717 2.749-.026 3.546 1.615z" fill="#EBEEFB"/><path d="M1311.67 293.724c-17.87-3.51-34.46-15.117-43.89-30.7-.96-1.555-.72-3.052.54-3.858 3.71-2.373 6.11-4.185 9.35-5.923 1.6-.809 3.16.759 3.87 1.9 7.14 11.632 19.44 20.229 32.81 22.945 1.32.276 2.24 1.497 2.06 2.811-.52 3.639-.95 7.302-1.3 10.986-.11 1.328-1.65 2.202-3.44 1.839z" fill="#D2AADF"/><path d="M640.411 585.723c-13.647 12.062-32.95 18.193-51.056 16.215-1.815-.187-2.857-1.287-2.732-2.779.37-4.388.389-7.397.978-11.026.325-1.757 2.521-2.047 3.86-1.918 13.577 1.396 27.874-3.145 38.158-12.119 1.019-.878 2.548-.867 3.485.07a231.292 231.292 0 007.934 7.711c.987.896.747 2.646-.627 3.846zM158.318 328.179c-9.688 15.423-26.478 26.751-44.406 29.962-1.794.333-3.105-.429-3.405-1.895-.883-4.315-1.714-7.207-2.173-10.854-.184-1.778 1.841-2.676 3.162-2.93 13.419-2.491 25.854-10.881 33.188-22.392.73-1.131 2.201-1.552 3.364-.916a233.18 233.18 0 009.787 5.159c1.199.581 1.463 2.327.483 3.866z" fill="#EBEEFB"/><path d="M171.995 681.714c-18.184-2.347-35.623-12.911-46.123-27.942-1.061-1.499-.918-3.019.295-3.912 3.571-2.628 5.863-4.607 9.003-6.567 1.547-.917 3.223.554 4.012 1.654 7.939 11.214 20.856 19.039 34.472 20.884 1.341.19 2.346 1.356 2.256 2.687-.282 3.69-.478 7.399-.585 11.123-.025 1.341-1.51 2.319-3.33 2.073z" fill="url(#paint3_linear_2855:45458)"/><path d="M646.328 531.249c16.821 7.297 30.646 22.283 36.567 39.636.604 1.734.045 3.154-1.368 3.676-4.159 1.535-6.911 2.801-10.471 3.813-1.741.453-2.943-1.426-3.396-2.701-4.519-12.976-14.759-24.075-27.33-29.623-1.235-.555-1.878-1.954-1.422-3.208a235.225 235.225 0 003.646-10.524c.395-1.282 2.094-1.81 3.774-1.069z" fill="url(#paint4_linear_2855:45458)"/><path d="M91.293 711.217c11.497-14.127 29.542-23.324 47.728-24.325 1.821-.112 3.029.804 3.148 2.296.351 4.39.823 7.362.834 11.038-.034 1.787-2.153 2.431-3.495 2.522-13.623.837-26.989 7.649-35.671 18.18-.862 1.033-2.373 1.272-3.45.499a232.33 232.33 0 00-9.085-6.313c-1.12-.723-1.17-2.489-.009-3.897zm713.931 4.213c-19.897-4.919-37.921-18.869-47.672-36.897-.987-1.8-.636-3.469.826-4.307 4.299-2.464 7.097-4.371 10.833-6.148 1.835-.822 3.509 1.025 4.245 2.347 7.392 13.463 20.742 23.795 35.629 27.576 1.465.381 2.434 1.804 2.165 3.271a260.595 260.595 0 00-2.064 12.278c-.198 1.487-1.972 2.384-3.962 1.88z" fill="#EBEEFB"/><path d="M973.246 431.701c-30.629-8.291-58.052-30.497-72.529-58.733-1.468-2.82-.866-5.392 1.425-6.639 6.738-3.668 11.134-6.524 16.977-9.147 2.869-1.21 5.396 1.706 6.491 3.777 10.982 21.09 31.293 37.538 54.207 43.897 2.254.641 3.705 2.876 3.238 5.137a405.615 405.615 0 00-3.613 18.934c-.357 2.294-3.133 3.623-6.196 2.774z" fill="url(#paint5_linear_2855:45458)"/><path d="M1304.4 561.165c-1.53 31.695-17.33 63.244-41.8 83.444-2.44 2.039-5.08 2.003-6.79.033-5.03-5.794-8.76-9.474-12.58-14.619-1.79-2.541.51-5.636 2.3-7.149 18.24-15.253 29.95-38.621 31.24-62.365.14-2.34 2.01-4.236 4.32-4.266 6.41-.025 12.83-.203 19.27-.535 2.32-.143 4.21 2.283 4.04 5.457z" fill="url(#paint6_linear_2855:45458)"/><path d="M1258 146.846c-17.78-3.942-34.09-15.947-43.14-31.753-.92-1.578-.64-3.069.64-3.844 3.76-2.282 6.21-4.036 9.49-5.695 1.61-.77 3.14.835 3.82 1.994 6.86 11.801 18.94 20.693 32.25 23.731 1.31.308 2.2 1.551 1.99 2.86-.61 3.626-1.13 7.277-1.57 10.952-.14 1.325-1.7 2.161-3.48 1.755z" fill="#EBEEFB"/><defs><linearGradient id="paint0_linear_2855:45458" x1="54.82" y1="243.086" x2="90.855" y2="261.43" gradientUnits="userSpaceOnUse"><stop stop-color="#0028D2"/><stop offset="1" stop-color="#244CB3"/></linearGradient><linearGradient id="paint1_linear_2855:45458" x1="1269.55" y1="60.654" x2="1276.19" y2="100.54" gradientUnits="userSpaceOnUse"><stop stop-color="#0028D2"/><stop offset="1" stop-color="#244CB3"/></linearGradient><linearGradient id="paint2_linear_2855:45458" x1="1474.09" y1="446.592" x2="1490.56" y2="483.521" gradientUnits="userSpaceOnUse"><stop stop-color="#0028D2"/><stop offset="1" stop-color="#244CB3"/></linearGradient><linearGradient id="paint3_linear_2855:45458" x1="125.466" y1="650.985" x2="157.111" y2="682.176" gradientUnits="userSpaceOnUse"><stop stop-color="#0028D2"/><stop offset="1" stop-color="#244CB3"/></linearGradient><linearGradient id="paint4_linear_2855:45458" x1="682.512" y1="573.674" x2="660.757" y2="534.932" gradientUnits="userSpaceOnUse"><stop stop-color="#0028D2"/><stop offset="1" stop-color="#244CB3"/></linearGradient><linearGradient id="paint5_linear_2855:45458" x1="900.676" y1="368.094" x2="947.617" y2="429" gradientUnits="userSpaceOnUse"><stop stop-color="#0028D2"/><stop offset="1" stop-color="#244CB3"/></linearGradient><linearGradient id="paint6_linear_2855:45458" x1="1257.85" y1="645.695" x2="1307.26" y2="586.777" gradientUnits="userSpaceOnUse"><stop stop-color="#0028D2"/><stop offset="1" stop-color="#244CB3"/></linearGradient></defs></svg>