<svg width="84" height="60" fill="none" xmlns="http://www.w3.org/2000/svg"><path d="M57.646 1.11l26.28 57.021c.282.572-.283 1.215-.92 1L.496 28.764C.212 28.692 0 28.406 0 28.05V1.468C0 1.039.353.753.706.753H56.87c.423-.071.706.143.777.357z" fill="#3F98F7"/><path d="M3.765 5.234H2.491V2.03H1.36v7.502h1.13V6.327h1.274V9.53h1.133v-7.5H3.765v3.205zm15.147 4.297V2.03h-1.274l-.92 3.06-.425 1.675V2.029h-.99v7.502h1.203l.99-3.423.496-1.82V9.53h.92zm-5.52.947h1.132v-2.04h-.496V2.03h-1.132v6.41H11.55V2.03h-1.133v7.502h2.973v.947zM6.808 2.03L5.676 9.531h1.062l.212-1.383h1.416l.212 1.383h1.133L8.578 2.03h-1.77zm.212 5.099l.566-3.788.567 3.788H7.02zm32.77-2.33h-.566V1.956h-1.132V9.53h1.699c1.132 0 1.698-.655 1.698-1.82v-.947c0-1.311-.566-1.967-1.698-1.967zm.567 2.913c0 .51-.212.728-.566.728h-.567V5.89h.567c.353 0 .566.146.566.729v1.093zm8.14-2.914h-.567v-2.84H46.8V9.53h1.698c1.133 0 1.7-.655 1.7-1.82v-.947c0-1.311-.567-1.967-1.7-1.967zm.566 2.914c0 .51-.213.728-.567.728h-.566V5.89h.566c.354 0 .567.146.567.729v1.093zm1.77 1.82h1.131V2.03h-1.132v7.502zM56 3.05V1.957h-3.114V9.53H56V8.44h-1.982V6.254h1.557V5.16h-1.557V3.05H56zM44.746 5.234h-1.345V2.03H42.27v7.502h1.13V6.327h1.274V9.53h1.133v-7.5h-1.133v3.205h.071zM29.6 2.03l-1.203 7.502h1.062l.212-1.383h1.416l.212 1.383h1.133L31.298 2.03H29.6zm.213 5.099l.566-3.788.566 3.788h-1.132zM27.689 9.53v-7.5h-1.133v3.205h-1.274V2.03h-1.133v7.502h1.133V6.327h1.274V9.53h1.133zm-6.229.073c1.132 0 1.77-.655 1.77-1.893V3.85c0-1.166-.638-1.894-1.77-1.894-1.133 0-1.77.655-1.77 1.893v3.86c.071 1.166.637 1.894 1.77 1.894zm-.566-5.9c0-.51.212-.728.566-.728s.566.219.566.729v4.078c0 .51-.212.729-.566.729s-.566-.219-.566-.729V3.705zm12.81 3.934c0 .728-.212.8-.707.8V9.53h.141c1.133 0 1.628-.51 1.628-1.893l.142-4.516h.99v6.41h1.133V2.028h-3.256l-.07 5.609zm-26.187 3.35h-1.7v7.502H6.95v-2.84h.567c1.132 0 1.698-.656 1.698-1.821v-.947c0-1.238-.566-1.894-1.698-1.894zm.566 2.914c0 .51-.213.728-.566.728H6.95v-2.55h.567c.353 0 .566.146.566.729v1.093zM1.288 18.49h1.133v-6.41h1.274v6.41h1.132v-7.502h-3.61v7.502h.071zm27.25-4.661h-.566v-2.84h-1.133v7.501h1.699c1.132 0 1.698-.655 1.698-1.82v-.948c0-1.238-.566-1.893-1.698-1.893zm.566 2.913c0 .51-.212.729-.566.729h-.566v-2.55h.566c.354 0 .566.146.566.729v1.092zM14.241 18.49h3.114v-1.092h-1.982v-2.185h1.557V14.12h-1.557v-2.112h1.982v-1.02H14.24v7.502zm9.555 0h1.132v-6.41h1.203v-1.092h-3.539v1.093h1.204v6.41zm7.078 0h1.132v-7.502h-1.133v7.502zm-10.051-7.502l-1.486 3.278v-3.278h-1.133v7.502h1.133v-2.33l.354-.656 1.132 2.986h1.203l-1.556-4.15 1.557-3.35h-1.203zm-9.13-.073c-1.133 0-1.77.656-1.77 1.894v3.86c0 1.166.637 1.894 1.77 1.894 1.132 0 1.769-.655 1.769-1.894v-3.86c-.07-1.238-.708-1.894-1.77-1.894zm.566 5.827c0 .51-.213.729-.566.729-.354 0-.567-.219-.567-.729v-4.079c0-.51.213-.728.567-.728.353 0 .566.218.566.728v4.08zm11.82 6.337l-.425 1.675V20.02h-.99v7.502h1.202l.991-3.423.496-1.821v5.244h1.061v-7.575H25l-.92 3.132zm-4.53 0l-.425 1.675V20.02h-.99v7.502h1.203l.99-3.423.496-1.821v5.244h1.062v-7.575H20.61l-1.062 3.132zm-8.14-3.205c-1.132 0-1.698.656-1.698 1.894v3.86c0 1.165.566 1.894 1.698 1.894 1.133 0 1.7-.656 1.7-1.894v-1.02h-1.063v1.093c0 .51-.212.728-.566.728s-.566-.218-.566-.728v-4.079c0-.51.212-.728.566-.728s.566.218.566.728v.801h1.062v-.728c0-1.093-.637-1.821-1.699-1.821zm4.176 0c-1.132 0-1.698.656-1.698 1.894v3.86c0 1.165.566 1.894 1.698 1.894 1.133 0 1.699-.656 1.699-1.894v-1.02h-1.062v1.093c0 .51-.212.728-.566.728s-.566-.218-.566-.728v-4.079c0-.51.212-.728.566-.728s.566.218.566.728v.801h1.062v-.728c0-1.093-.566-1.821-1.699-1.821zm-8.422 0c-1.133 0-1.77.656-1.77 1.894v3.86c0 1.165.637 1.894 1.77 1.894 1.132 0 1.77-.656 1.77-1.894v-3.86c-.072-1.166-.638-1.894-1.77-1.894zm.566 5.9c0 .51-.212.728-.566.728s-.567-.218-.567-.728v-4.08c0-.509.213-.727.567-.727s.566.218.566.728v4.079zm-4.742-5.827H1.288v7.502h1.133v-2.84h.566c1.132 0 1.698-.656 1.698-1.822v-.946c0-1.239-.566-1.894-1.698-1.894zm.566 2.913c0 .51-.212.729-.566.729H2.42v-2.55h.566c.354 0 .566.146.566.729v1.092z" fill="#fff"/></svg>