<svg width="74" height="58" fill="none" xmlns="http://www.w3.org/2000/svg"><path d="M41.482 37.406c0-.757.755-.978 1.393-.978.864 0 1.392.138 2.112.379l.158-1.736c-.74-.151-1.461-.323-2.572-.323-1.852 0-3.553.84-3.553 2.748 0 3.196 4.102 2.01 4.102 3.74 0 .86-.954 1.081-1.55 1.081-.81 0-1.585-.22-2.326-.585l-.144 1.887c.865.22 1.777.379 2.675.379 1.92 0 3.8-.827 3.8-2.886.007-3.196-4.095-2.3-4.095-3.706zm16.846-2.445h-2.36v8.844h2.36V34.96zm11.255 2.445c0-.757.754-.978 1.392-.978.865 0 1.393.138 2.113.379l.158-1.736c-.741-.151-1.461-.323-2.572-.323-1.852 0-3.56.84-3.56 2.748 0 3.196 4.101 2.01 4.101 3.74 0 .86-.953 1.081-1.55 1.081-.81 0-1.584-.22-2.325-.585l-.144 1.887c.864.22 1.776.379 2.675.379 1.92 0 3.8-.827 3.8-2.886.014-3.196-4.088-2.3-4.088-3.706zm-14.877-2.445h-2.784l-2.82 3.534h-.034v-8.293l-2.359.723v12.873h2.36v-4.291h.034l3.031 4.29h2.99l-3.765-4.875 3.347-3.96zm5.144 8.837h2.36V30.202l-2.36.723v12.873zm3.718-12.873v12.873h2.366V30.202l-2.36.723h-.006zm-6.365-.585a1.32 1.32 0 00-1.317 1.322c0 .73.59 1.322 1.317 1.322a1.32 1.32 0 001.316-1.322 1.329 1.329 0 00-1.316-1.322zM17.538 44.039c3.073 0 4.164-2.452 4.164-4.553 0-2.1-1.091-4.552-4.164-4.552-3.072 0-4.156 2.452-4.156 4.552 0 2.101 1.09 4.553 4.156 4.553zm0-8.238c1.797 0 3.005 1.481 3.005 3.685 0 2.204-1.208 3.685-3.005 3.685s-3.004-1.48-3.004-3.685c0-2.204 1.207-3.684 3.004-3.684zm6.228 7.997v-4.353c0-1.605.452-3.513 2.606-3.513l.33.014.006-.034.055-1.013h-.123c-1.454 0-2.442.551-2.936 1.633v-1.426h-.98v8.692h1.042zm9.965.207c1.345 0 2.257-.496 2.867-1.557v1.35h1.05V30.67l-.041.014-1.015.31v5.372c-.22-.365-1.036-1.494-2.867-1.467-3.032.041-3.67 2.493-3.67 4.553.007 2.81 1.413 4.553 3.676 4.553zm.172-8.238c1.859 0 2.689 1.853 2.689 3.685 0 1.839-.83 3.685-2.689 3.685-2.428 0-2.689-2.576-2.689-3.685s.261-3.685 2.689-3.685zm-6.056-4.773v12.804h1.05V30.67l-.042.014-1.008.31zM2.867 43.798h1.296l2.449-7.57h.082c.014.049 2.449 7.57 2.449 7.57h1.296l2.936-8.692h-1.043l-2.483 7.57h-.082c-.014-.049-2.38-7.57-2.38-7.57H6.091s-2.483 7.528-2.504 7.57h-.075l-2.36-7.57H0l.014.041c.055.165 2.819 8.548 2.846 8.623l.007.028zm68.931-23.624c3.004 4.063-2.373 9.146-2.373 9.146C83.91 16.18 59.37 11.13 59.37 11.13c-1.379 3.368-5.597 4.112-5.597 4.112 27.36 3.223 13.135 13.376 13.135 13.376 6.564-3.403 4.89-8.444 4.89-8.444z" fill="#3F98F7"/><path d="M67.224 13.403c1.714.854 2.915 1.688 3.621 2.239.309-8.823-5.988-13.755-5.988-13.755-.185.565-.733 1.199-1.515 1.488-.782.29-1.256 1.233-1.256 1.233 3.073 2.569 4.548 5.71 5.138 8.795zm-8.499-1.653c.37-.558.474-.943.474-.943a31.96 31.96 0 014.376 1.095C60.885 4.215 55.885 0 55.885 0c-.136.406-1.604 1.136-2.599 1.577-.994.441-.734 2.294-.734 2.294 2.73 2.273 4.72 5.048 6.173 7.88zm10.282 8.527c-.336 3.795-2.586 7.831-2.586 7.831 1.584-2.424 2.668-4.697 3.368-6.812a4.26 4.26 0 00-.782-1.02z" fill="#3F98F7"/><path d="M68.712 20.008a8.647 8.647 0 00-1.27-.895c-.39 4.084-1.748 7.156-1.748 7.156.782-.895 1.385-2.342 1.385-2.342.028 1.027-.809 3.052-.809 3.052 1.44-2.322 2.126-5.152 2.442-6.97zm-16.832.352c-.7-.021-1.118.42-1.392.571-.274.152-1.029.138-1.029.138 2.764 4.477 10.748 6.894 10.748 6.894-.871-.475-2.14-.97-4.74-2.996 1.969 1.488 5.254 2.439 5.254 2.439-7.263-3.7-8.84-7.046-8.84-7.046zm9.562 7.335c-.864-4.704-2.689-7.714-2.689-7.714 1.934 1.997 3.272 7.073 3.272 7.073-.432-5.241-2.593-8.781-5.076-11.144-2.407-.4-4.184-.558-4.184-.558.96-.24 1.784-.537 2.483-.86-3.395-2.48-6.77-3.093-6.77-3.093s-.63.213-.713 1.26c-.089 1.054-.892 1.192-.892 1.192 12.223 3.285 14.425 13.141 14.569 13.844zm-.001 0c0 .014.007.027.007.041 0 .007 0-.014-.007-.041zm2.155-9.257c1.255 2.473 1.097 9.202 1.097 9.202.645-3.534.672-6.77.302-9.684-1.338-.517-2.806-.937-4.253-1.281 1.825 5.654 1.859 10.434 1.859 10.434 1.351-2.624.995-8.671.995-8.671zM5.988 52.586a1.547 1.547 0 00-.288-.427c-.206-.24-.535-.385-.995-.447v-.035c.755-.117 1.379-.413 1.88-.895.5-.468.76-1.095.768-1.874-.055-2.107-1.228-3.14-3.505-3.106H.768v11.991h1.18V52.14h.974c.288 0 .535.007.754.014.22.02.412.082.583.185.343.186.672.648.995 1.392l1.728 4.056h1.303l-2.044-4.635a6.262 6.262 0 00-.253-.565zm-2.792-1.48H1.948v-4.278h1.214c.411 0 .795.014 1.166.035.363.034.686.117.96.255.274.124.487.33.652.62.15.289.233.681.233 1.17-.02.813-.343 1.385-.96 1.715-.604.338-1.276.496-2.017.483zm12.346-2.074h-1.076v4.842c0 .365-.042.73-.117 1.102-.082.365-.22.71-.425 1.034-.186.31-.446.557-.79.757-.342.207-.76.31-1.248.31-.726 0-1.255-.255-1.57-.758-.33-.468-.494-1.122-.494-1.956V49.04H8.745v5.6c-.014.985.22 1.784.686 2.404.466.626 1.235.95 2.29.964.454 0 .845-.062 1.167-.186a2.45 2.45 0 00.802-.413c.22-.186.391-.38.529-.586.137-.193.247-.392.322-.585h.034V57.8h1.043a21.109 21.109 0 01-.069-2.06v-6.708h-.007zm4.431 3.83a11.34 11.34 0 00-.768-.379c-.26-.124-.494-.248-.7-.358a2 2 0 01-.493-.407.818.818 0 01-.186-.51c0-.295.048-.536.151-.715.09-.18.22-.324.391-.428.33-.206.775-.31 1.338-.31a5.299 5.299 0 011.934.414l.103-.93a5.723 5.723 0 00-1.18-.337 8.374 8.374 0 00-.974-.07c-.74 0-1.392.18-1.948.531-.583.365-.878.985-.892 1.853 0 .31.062.578.186.806.123.24.288.454.48.633.22.172.446.324.686.462.24.138.487.268.754.392a7.78 7.78 0 011.454.772c.412.296.624.702.631 1.219-.014.496-.199.868-.562 1.136-.378.29-.83.427-1.372.427-.857-.014-1.612-.193-2.277-.55l-.103 1.067a7.372 7.372 0 002.449.413c.72 0 1.399-.193 2.037-.572.295-.192.542-.454.734-.778.185-.31.274-.696.274-1.157-.014-.71-.226-1.267-.652-1.674a5.283 5.283 0 00-1.495-.95zm5.802 0a11.293 11.293 0 00-.768-.379c-.26-.124-.494-.248-.7-.358a2.004 2.004 0 01-.493-.407.818.818 0 01-.186-.51c0-.295.049-.536.151-.715.09-.18.22-.324.391-.428.33-.206.775-.31 1.338-.31a5.298 5.298 0 011.934.414l.103-.93a5.722 5.722 0 00-1.18-.337 8.374 8.374 0 00-.974-.07c-.74 0-1.392.18-1.948.531-.583.365-.878.985-.891 1.853 0 .31.061.578.185.806.123.24.288.454.48.633.22.172.446.324.686.462.24.138.487.268.754.392a7.777 7.777 0 011.454.772c.412.296.625.702.631 1.219-.013.496-.198.868-.562 1.136-.377.29-.83.427-1.372.427-.857-.014-1.612-.193-2.277-.55l-.103 1.067a7.373 7.373 0 002.449.413c.72 0 1.399-.193 2.037-.572.295-.192.542-.454.734-.778.185-.31.274-.696.274-1.157-.014-.71-.226-1.267-.651-1.674a5.382 5.382 0 00-1.496-.95zm4.295-7.611h-1.077v1.447h1.077V45.25zm0 3.781h-1.077v8.761h1.077v-8.76zm7.845 3.058c.021-2.197-1-3.285-3.059-3.264a6.142 6.142 0 00-2.565.62v1.033a4.815 4.815 0 012.565-.723c1.358 0 2.017.75 1.983 2.252v.447h-.206c-.57 0-1.166.014-1.777.049a6.921 6.921 0 00-1.742.379 2.884 2.884 0 00-1.317.909c-.356.427-.528 1.005-.528 1.735-.02.448.151.958.515 1.53.205.261.5.481.891.654.378.186.864.282 1.468.289a3.575 3.575 0 001.626-.427 2.583 2.583 0 001.145-1.185h.034V57.8h1.063a12.94 12.94 0 01-.082-1.839v-3.87h-.014zm-1.075 1.82c0 .227-.014.523-.035.874a2.76 2.76 0 01-.288 1.047c-.157.331-.418.62-.768.861-.363.255-.864.38-1.488.38-.501 0-.926-.125-1.27-.38-.363-.24-.548-.64-.548-1.205 0-.482.13-.868.391-1.15.24-.29.556-.496.96-.634a4.889 4.889 0 011.338-.29c.466-.02.933-.033 1.406-.033h.309v.53h-.007z" fill="#3F98F7"/></svg>