<svg aria-hidden="true" style="position:absolute;width:0;height:0" xmlns="http://www.w3.org/2000/svg" overflow="hidden"><defs><symbol id="i-logo" viewBox="0 0 71 48"><path fill-rule="evenodd" clip-rule="evenodd" d="M24.818 47.997c1.828.003 3.638-.802 4.712-1.823l-1.196-1.9c-.572.765-1.718 1.607-3.346 1.686-2.565.124-4.606-1.674-4.606-3.872 0-3.785 5.403-5.248 7.855-2.31L29.42 37.9c-1.052-.975-2.72-1.726-4.52-1.72-3.775.01-6.8 2.544-6.8 5.908 0 3.365 2.994 5.901 6.718 5.91z"/><path d="M39.985 47.667h2.644l-3.879-6.045 3.517-5.437h-2.671l-3.136 4.887-2.297-.016-.018-4.871h-2.51l.018 11.482h2.51v-4.63l2.847-.006 2.975 4.636z"/><path d="M44.479 41.99c0-2.33 1.576-3.589 4.666-3.814v7.63c-2.975-.244-4.666-1.504-4.666-3.815zm6.972 3.815v-7.629c3.033.206 4.685 1.485 4.685 3.796 0 2.31-1.612 3.608-4.685 3.833zm7.085-3.814c0-3.457-2.555-5.524-7.085-5.75h-2.306c-4.532.226-7.106 2.274-7.106 5.75 0 3.457 2.574 5.505 7.106 5.73h2.306c4.533-.187 7.085-2.273 7.085-5.73zm9.908-5.752c-1.262 2.105-2.345 4.004-3.76 6.164l-3.745-6.164h-2.558l4.992 8.223c-.55.755-1.174 1.492-2.285 1.492-.237 0-.48-.03-.739-.08l1.135 1.833c1.478.014 2.78-.5 3.909-2.343l5.603-9.125h-2.552z"/><path fill-rule="evenodd" clip-rule="evenodd" d="M.636 23.291c3.03 3.273 7.194 5.416 11.919 5.977-.15.138-.271.339-.393.463-3.614.277-6.88-.409-9.984-2.1-.639-1.373-1.205-2.836-1.542-4.34z"/><path fill-rule="evenodd" clip-rule="evenodd" d="M13.924 27.951c-.198.16-.52.445-.67.607C7.721 27.526 3.167 24.511.22 20.222c-.22-2.704.06-5.375.867-7.987C2.2 19.119 6.876 24.898 13.925 27.951z"/><path fill-rule="evenodd" clip-rule="evenodd" d="M16.162 26.383c-.45.263-1.125.66-1.575 1.021C7.19 23.262 3.103 16.56 2.507 8.87 4.811 4.86 6.822 2.734 10.564 0 5.536 9.948 9 20.336 16.162 26.383z"/><path fill-rule="evenodd" clip-rule="evenodd" d="M21.885 4.79c5.661 3.221 13.558 12.343 9.868 20.558-2.944 6.554-8.947 8.206-11.015 9.371-2.069 1.165-6.118 4.438-4.618 9.499-4.332-1.65-5.795-5.62-4.375-9.217 3.158-8 10.286-6.825 12.312-17.537.912-4.83-1.022-10.699-2.172-12.674zM3.09 29.433c2.705 1.314 5.552 1.69 8.54 1.014-.089.122-.283.46-.378.58-2.096.942-4.295.97-6.616.622-.609-.772-.965-1.379-1.546-2.216zm2.462 3.373c1.728.25 3.65-.14 5.199-.92l-.256.612c-.973.988-2.552 1.349-3.857 1.403-.472-.333-.742-.748-1.086-1.095z"/></symbol><symbol id="i-logo-small" viewBox="0 0 35 35"><path d="M17.5 0C27.2 0 35 7.8 35 17.5S27.2 35 17.5 35 0 27.2 0 17.5 7.8 0 17.5 0z" fill="#0028d2"/><clipPath id="b"><path id="a" d="M4 5h26v27H4z" overflow="visible"/></clipPath><g clip-path="url(#b)" fill="#fff"><path d="M14.5 23.5c-2.8.6-5.4.3-7.9-.9.5.7.9 1.2 1.4 1.9 2.2.3 4.2.3 6.1-.5.1-.1.3-.4.4-.5zm.8-1c-4.4-.5-8.2-2.3-11.1-5 .3 1.3.8 2.5 1.4 3.6 2.9 1.4 5.9 2 9.3 1.8.2-.1.3-.3.4-.4zm7.1-15.6c.8 1.3 2.2 5 1.5 8.1-1.4 6.8-6.4 6.1-8.6 11.1-1 2.3 0 4.8 3.1 5.9-1.1-3.2 1.8-5.3 3.2-6 1.5-.7 5.7-1.8 7.7-6 2.6-5.2-2.9-11-6.9-13.1zM8.8 25.5c.3.3.6.6 1 .9 1.2 0 2.7-.3 3.6-1.2l.2-.5c-1.4.7-3.2 1-4.8.8z"/><path d="M6.7 9c1.4 4.9 5 9.1 10.5 11.9.4-.3 1-.6 1.5-.9-4.8-3.7-7.8-9.2-7.4-15.1C9.5 6 7.9 7.4 6.7 9zm-2-.8z"/><path d="M16 21.9c.1-.1.4-.4.6-.5-5.5-2.2-9.4-5.9-11.2-10.5-.7 1.3-1.2 2.7-1.5 4.1 2.8 3.6 7 6.1 12.1 6.9z"/></g></symbol><symbol id="i-arrow" viewBox="0 0 18 18" xmlns="http://www.w3.org/2000/svg"><path d="M5.584 4.315L9.997 9l-4.412 4.684a1.24 1.24 0 00-.335.855c0 .324.119.628.335.858.445.47 1.168.47 1.613 0l5.22-5.542a1.266 1.266 0 00-.002-1.712l-5.22-5.54a1.101 1.101 0 00-.805-.353 1.11 1.11 0 00-.807.353 1.239 1.239 0 00-.334.856c0 .324.119.628.334.856z"/></symbol><symbol id="i-arrow-1" viewBox="0 0 30 30" xmlns="http://www.w3.org/2000/svg"><path fill-rule="evenodd" clip-rule="evenodd" d="M13.84 23.911V3.021a1.27 1.27 0 012.542 0v20.89l7.214-7.215a1.27 1.27 0 011.797 1.797l-.009.01-9.374 9.374a1.27 1.27 0 01-1.798.002l-9.386-9.386a1.271 1.271 0 011.517-2.002l.08.002 7.417 7.418z"/></symbol><symbol id="i-arrow-2" xmlns="http://www.w3.org/2000/svg" viewBox="0 0 12.9 11"><path class="st0" d="M8.5 10.7c-.4.4-1 .4-1.3 0-.4-.4-.4-1 0-1.4l2.4-2.7H.9C.4 6.5 0 6.1 0 5.5c0-.6.4-1 .9-1h8.6L7.2 1.8c-.2-.2-.3-.5-.3-.8 0-.3.1-.5.3-.7.4-.4.9-.4 1.3 0l4.1 4.5c.1.1.1.1.1.2.1.2.1.3.1.5s0 .3-.1.5v.1c0 .1-.1.1-.1.2l-4.1 4.4z"/></symbol><symbol id="icon-facebook2" viewBox="0 0 32 32"><path d="M29 0H3C1.35 0 0 1.35 0 3v26c0 1.65 1.35 3 3 3h13V18h-4v-4h4v-2c0-3.306 2.694-6 6-6h4v4h-4c-1.1 0-2 .9-2 2v2h6l-1 4h-5v14h9c1.65 0 3-1.35 3-3V3c0-1.65-1.35-3-3-3z"/></symbol><symbol id="icon-instagram" viewBox="0 0 32 32"><path d="M16 2.881c4.275 0 4.781.019 6.462.094 1.563.069 2.406.331 2.969.55a4.952 4.952 0 011.837 1.194 5.015 5.015 0 011.2 1.838c.219.563.481 1.412.55 2.969.075 1.688.094 2.194.094 6.463s-.019 4.781-.094 6.463c-.069 1.563-.331 2.406-.55 2.969a4.94 4.94 0 01-1.194 1.837 5.02 5.02 0 01-1.837 1.2c-.563.219-1.413.481-2.969.55-1.688.075-2.194.094-6.463.094s-4.781-.019-6.463-.094c-1.563-.069-2.406-.331-2.969-.55a4.952 4.952 0 01-1.838-1.194 5.02 5.02 0 01-1.2-1.837c-.219-.563-.481-1.413-.55-2.969-.075-1.688-.094-2.194-.094-6.463s.019-4.781.094-6.463c.069-1.563.331-2.406.55-2.969a4.964 4.964 0 011.194-1.838 5.015 5.015 0 011.838-1.2c.563-.219 1.412-.481 2.969-.55 1.681-.075 2.188-.094 6.463-.094zM16 0c-4.344 0-4.887.019-6.594.094-1.7.075-2.869.35-3.881.744-1.056.412-1.95.956-2.837 1.85a7.833 7.833 0 00-1.85 2.831C.444 6.538.169 7.7.094 9.4.019 11.113 0 11.656 0 16s.019 4.887.094 6.594c.075 1.7.35 2.869.744 3.881.413 1.056.956 1.95 1.85 2.837a7.82 7.82 0 002.831 1.844c1.019.394 2.181.669 3.881.744 1.706.075 2.25.094 6.594.094s4.888-.019 6.594-.094c1.7-.075 2.869-.35 3.881-.744 1.05-.406 1.944-.956 2.831-1.844s1.438-1.781 1.844-2.831c.394-1.019.669-2.181.744-3.881.075-1.706.094-2.25.094-6.594s-.019-4.887-.094-6.594c-.075-1.7-.35-2.869-.744-3.881a7.506 7.506 0 00-1.831-2.844A7.82 7.82 0 0026.482.843C25.463.449 24.301.174 22.601.099c-1.712-.081-2.256-.1-6.6-.1z"/><path d="M16 7.781c-4.537 0-8.219 3.681-8.219 8.219s3.681 8.219 8.219 8.219 8.219-3.681 8.219-8.219A8.221 8.221 0 0016 7.781zm0 13.55a5.331 5.331 0 110-10.663 5.331 5.331 0 010 10.663zM26.462 7.456a1.919 1.919 0 11-3.838 0 1.919 1.919 0 013.838 0z"/></symbol><symbol id="icon-vk" viewBox="0 0 32 32"><path d="M29 0H3C1.35 0 0 1.35 0 3v26c0 1.65 1.35 3 3 3h26c1.65 0 3-1.35 3-3V3c0-1.65-1.35-3-3-3zm-3.081 22.4l-2.925.044s-.631.125-1.456-.444c-1.094-.75-2.125-2.706-2.931-2.45-.813.256-.788 2.012-.788 2.012s.006.375-.181.575c-.2.219-.6.262-.6.262h-1.306s-2.888.175-5.431-2.475c-2.775-2.887-5.225-8.619-5.225-8.619s-.144-.375.013-.556c.175-.206.644-.219.644-.219l3.131-.019s.294.05.506.206c.175.125.269.369.269.369s.506 1.281 1.175 2.438c1.306 2.256 1.919 2.75 2.362 2.513.644-.35.45-3.194.45-3.194s.012-1.031-.325-1.488c-.262-.356-.756-.463-.969-.488-.175-.025.113-.431.488-.619.563-.275 1.556-.294 2.731-.281.913.006 1.181.069 1.538.15 1.081.262.712 1.269.712 3.681 0 .775-.137 1.863.419 2.219.238.156.825.025 2.294-2.469.694-1.181 1.219-2.569 1.219-2.569s.113-.25.288-.356c.181-.106.425-.075.425-.075l3.294-.019s.988-.119 1.15.331c.169.469-.369 1.563-1.712 3.356-2.206 2.944-2.456 2.669-.619 4.369 1.75 1.625 2.113 2.419 2.175 2.519.712 1.2-.813 1.294-.813 1.294z"/></symbol><symbol id="icon-youtube" viewBox="0 0 32 32"><path d="M31.681 9.6s-.313-2.206-1.275-3.175C29.187 5.15 27.825 5.144 27.2 5.069c-4.475-.325-11.194-.325-11.194-.325h-.012s-6.719 0-11.194.325c-.625.075-1.987.081-3.206 1.356C.631 7.394.325 9.6.325 9.6s-.319 2.588-.319 5.181v2.425c0 2.587.319 5.181.319 5.181s.313 2.206 1.269 3.175c1.219 1.275 2.819 1.231 3.531 1.369 2.563.244 10.881.319 10.881.319s6.725-.012 11.2-.331c.625-.075 1.988-.081 3.206-1.356.962-.969 1.275-3.175 1.275-3.175s.319-2.587.319-5.181v-2.425c-.006-2.588-.325-5.181-.325-5.181zM12.694 20.15v-8.994l8.644 4.513-8.644 4.481z"/></symbol><symbol id="mail" viewBox="0 0 25 24" fill="#fff"><path d="M22.227 17.167h-2.09a.522.522 0 010-1.045h2.09c.863 0 1.566-.703 1.566-1.566V3.066c0-.863-.703-1.566-1.566-1.566h-18.8c-.864 0-1.567.702-1.567 1.567v11.489c0 .864.703 1.566 1.567 1.566h2.088a.522.522 0 110 1.045H3.427a2.615 2.615 0 01-2.612-2.611V3.066A2.615 2.615 0 013.427.457h18.8c1.44 0 2.61 1.17 2.61 2.61v11.49c0 1.439-1.17 2.61-2.61 2.61z"/><path d="M12.828 9.871a2.698 2.698 0 01-1.595-.523L3.122 3.49a.52.52 0 01-.118-.73.52.52 0 01.729-.117l8.115 5.86a1.65 1.65 0 001.956.002l8.117-5.862a.523.523 0 01.612.846l-8.116 5.86a2.684 2.684 0 01-1.59.522zm-9.401 5.207a.523.523 0 01-.37-.89l5.222-5.223a.523.523 0 01.738.738l-5.222 5.222a.52.52 0 01-.368.153zm18.8 0a.524.524 0 01-.37-.153l-5.222-5.222a.522.522 0 01.738-.738l5.222 5.222a.522.522 0 01-.368.89zm-9.397 8.356h-.098a5.706 5.706 0 01-4.033-1.75 5.743 5.743 0 014.223-9.737 5.711 5.711 0 014.033 1.748 5.718 5.718 0 011.616 3.994.522.522 0 01-1.045 0c0-1.226-.47-2.387-1.323-3.268a4.674 4.674 0 00-3.3-1.431c-1.23 0-2.443.45-3.346 1.323a4.704 4.704 0 00-.108 6.645 4.665 4.665 0 003.3 1.431c1.26.044 2.442-.45 3.346-1.322a.523.523 0 01.725.75 5.701 5.701 0 01-3.99 1.617z"/><path d="M12.826 20.3a2.615 2.615 0 01-2.61-2.611 2.615 2.615 0 012.61-2.611c1.44 0 2.611 1.17 2.611 2.611a2.614 2.614 0 01-2.61 2.611zm0-4.178c-.863 0-1.566.703-1.566 1.567s.703 1.567 1.566 1.567c.864 0 1.567-.703 1.567-1.567s-.703-1.567-1.567-1.567z"/><path d="M16.482 20.3c-1.307 0-2.089-.976-2.089-2.611a.522.522 0 011.045 0c0 1.04.352 1.567 1.044 1.567.781 0 1.045-.396 1.045-1.567a.522.522 0 011.044 0c0 .645 0 2.611-2.089 2.611z"/></symbol><symbol id="location" viewBox="0 0 18 24" fill="#fff"><path d="M3.774 14.61c.335.443 3.767 4.83 4.65 5.96.335.43.678.43 1.02 0 .394-.496.791-.989 1.164-1.499.149-.201.289-.303.546-.23.17.048.353.04.53.062 1.024.135 2.03.343 2.99.738.41.17.812.365 1.128.691.246.256.248.459.016.726-.251.287-.58.47-.921.621-1.436.642-2.968.846-4.513.96-1.13.081-2.266.067-3.394-.043-.958-.09-1.907-.229-2.833-.493-.7-.2-1.394-.429-1.962-.916-.402-.344-.394-.626.006-.968.201-.175.442-.297.671-.434.323-.196.413-.488.249-.765-.164-.277-.449-.335-.765-.182a4.256 4.256 0 00-.726.447c-1.097.843-1.088 2.019.011 2.85.553.42 1.18.685 1.833.896 1.469.47 2.985.646 4.52.712 1.924.083 3.829-.048 5.702-.507.935-.229 1.837-.548 2.616-1.15.978-.756 1.02-1.883.084-2.68-.758-.644-1.677-.948-2.617-1.199-.71-.181-1.43-.318-2.157-.41.048-.068.076-.113.109-.153 1.09-1.398 2.173-2.803 3.276-4.192 1.053-1.326 1.687-2.818 1.792-4.51.128-2.046-.455-3.891-1.744-5.486-1.042-1.29-2.372-2.157-3.965-2.623-.459-.135-.936-.169-1.393-.297H8.09c-.02.072-.083.05-.134.057A6.857 6.857 0 006.58.897c-3.204 1.14-5.061 3.4-5.479 6.766-.211 1.703.19 3.324 1.085 4.806.459.762 1.048 1.433 1.588 2.142zM7.669 1.727c3.512-.675 6.987 1.537 7.849 5.032.531 2.146.094 4.118-1.254 5.867-1.719 2.231-3.463 4.443-5.19 6.668-.113.144-.162.16-.282.006-1.78-2.297-3.575-4.581-5.346-6.884-.72-.935-1.115-2.013-1.26-3.186a6.816 6.816 0 015.483-7.503z"/><path d="M4.375 18.15a.54.54 0 01.527.55.542.542 0 01-.552.526c-.3-.01-.515-.25-.508-.564a.523.523 0 01.533-.513zM10.66 4.618c-.22.336-.376.403-.818.291-.737-.18-1.465-.162-2.172.112C6.297 5.55 5.477 6.54 5.24 8c-.313 1.94 1.05 3.756 2.867 4.175 2.012.46 4.115-.886 4.485-2.918a3.875 3.875 0 00-.044-1.663c-.102-.403-.031-.572.298-.797.53-.022.63.067.769.626.586 2.38-.79 4.83-3.05 5.639a4.831 4.831 0 01-6.33-3.471c-.614-2.67 1.154-5.32 3.859-5.8a4.993 4.993 0 012.088.08c.404.099.538.313.477.746z"/><path d="M12.319 5.93c-.313.163-.538.15-.73-.045-.193-.195-.206-.441-.037-.749.446-.29.856-.16.94.292.042.206-.06.354-.173.502z"/></symbol><symbol id="phone" viewBox="0 0 24 24" fill="#fff"><path d="M11.26 18.033a.45.45 0 10.636.636.45.45 0 00-.637-.636z"/><path d="M22.78 17.253l-3.41-2.9a.456.456 0 00-.05-.037 2.233 2.233 0 00-2.794.306l-1.86 1.86a.448.448 0 01-.49.097c-2.1-.869-3.825-2.176-5.127-3.887-.993-1.304-1.351-2.34-1.399-2.486a.445.445 0 00-.027-.093.447.447 0 01.098-.489l1.86-1.86a2.232 2.232 0 00.292-2.815L7.409 1.525a2.246 2.246 0 00-3.476-.37l-.372.372H3.56l-1.33 1.33C.645 4.443.385 6.826 1.48 9.748c.938 2.503 2.816 5.243 5.287 7.714 2.53 2.53 5.343 4.442 7.923 5.385 2.553.933 5.269 1.048 7.191-.875l1.254-1.254a2.247 2.247 0 00-.354-3.465zm-3.967-2.195l3.408 2.898a.433.433 0 00.05.037c.728.463.838 1.481.229 2.09l-.093.093-5.813-4.352.567-.567a1.34 1.34 0 011.652-.199zM6.659 2.019l.014.021 2.462 3.422a1.34 1.34 0 01-.19 1.667l-.55.55-3.932-5.784.105-.105a1.348 1.348 0 012.09.23zm8.339 19.984c-2.46-.899-5.157-2.737-7.596-5.176-2.382-2.382-4.187-5.008-5.08-7.394-.671-1.791-1.122-4.275.543-5.94l.951-.951L7.75 8.325l-.663.664a1.342 1.342 0 00-.308 1.43c.142.582.794 1.79 1.453 2.68.968 1.31 2.727 3.121 5.602 4.31.505.21 1.081.095 1.468-.292l.651-.651 5.813 4.352-.52.519c-1.784 1.785-4.382 1.347-6.247.666z"/><path d="M10.416 16.96c-.474-.416-1.295-1.132-1.727-1.576-1.06-1.09-2.172-2.41-2.834-3.364a.45.45 0 10-.738.512c.834 1.203 2.06 2.585 2.928 3.478.456.47 1.284 1.192 1.779 1.626a.45.45 0 00.592-.676z"/></symbol><symbol id="icon-left-arrow" viewBox="0 0 443.52 443.52"><path d="M143.492 221.863L336.226 29.129c6.663-6.664 6.663-17.468 0-24.132-6.665-6.662-17.468-6.662-24.132 0l-204.8 204.8c-6.662 6.664-6.662 17.468 0 24.132l204.8 204.8c6.78 6.548 17.584 6.36 24.132-.42 6.387-6.614 6.387-17.099 0-23.712L143.492 221.863z"/></symbol><symbol id="icon-right-arrow" viewBox="0 0 792.033 792.033"><path d="M617.858 370.896L221.513 9.705c-13.006-12.94-34.099-12.94-47.105 0-13.006 12.939-13.006 33.934 0 46.874l372.447 339.438-372.414 339.437c-13.006 12.94-13.006 33.935 0 46.874s34.099 12.939 47.104 0l396.346-361.191c6.932-6.898 9.904-16.043 9.441-25.087.431-9.078-2.54-18.222-9.474-25.154z"/></symbol><symbol id="icon-search" viewBox="0 0 32 32"><path d="M31.008 27.231l-7.58-6.447c-.784-.705-1.622-1.029-2.299-.998a11.954 11.954 0 002.87-7.787c0-6.627-5.373-12-12-12s-12 5.373-12 12 5.373 12 12 12c2.972 0 5.691-1.081 7.787-2.87-.031.677.293 1.515.998 2.299l6.447 7.58c1.104 1.226 2.907 1.33 4.007.23s.997-2.903-.23-4.007zM12 20a8 8 0 110-16 8 8 0 010 16z"/></symbol><symbol id="icon-eye" viewBox="0 0 69 36"><path d="M68.163 16.47C61.923 8.92 48.723 0 34.313 0S6.653 8.92.463 16.47a2 2 0 000 2.56c6.39 7.78 19.62 16.46 33.85 16.46 14.74 0 27.89-9.19 33.85-16.46a2 2 0 000-2.56zm-20.14 1.28a13.71 13.71 0 11-13.71-13.71 13.73 13.73 0 0113.71 13.71zm-43.27 0a48.79 48.79 0 0115.43-10.73 17.72 17.72 0 000 21.45 47.94 47.94 0 01-15.43-10.72zm43.69 10.72a17.7 17.7 0 000-21.44 47.57 47.57 0 0115.43 10.72 48.682 48.682 0 01-15.43 10.72z" fill="currentColor"/><path d="M34.313 10.92a6.998 6.998 0 00-1.6.19c.217.354.379.738.48 1.14a3.79 3.79 0 01-5.6 4.16 6.86 6.86 0 106.72-5.49z" fill="currentColor"/></symbol><symbol id="icon-envelop" viewBox="0 0 32 32"><path d="M29 4H3C1.35 4 0 5.35 0 7v20c0 1.65 1.35 3 3 3h26c1.65 0 3-1.35 3-3V7c0-1.65-1.35-3-3-3zM12.461 17.199L4 23.789V8.113l8.461 9.086zM5.512 8h20.976L16 15.875 5.512 8zm7.278 9.553L16 21l3.21-3.447L25.79 26H6.211l6.58-8.447zm6.749-.354L28 8.113v15.676l-8.461-6.59z"/></symbol><symbol id="icon-library" viewBox="0 0 34 32"><path d="M32 30v-2h-2V16h2v-2h-6v2h2v12h-6V16h2v-2h-6v2h2v12h-6V16h2v-2h-6v2h2v12H6V16h2v-2H2v2h2v12H2v2H0v2h34v-2h-2zM16 0h2l16 10v2H0v-2L16 0z"/></symbol><symbol id="icon0" viewBox="0 0 21 21" fill="none"><path d="M20.08 19.095l-.914-2.556a.777.777 0 00-.731-.515h-.512V10.64h.512a.772.772 0 00.776-.768V7.315a.763.763 0 00-.374-.66l-7.94-4.796a.775.775 0 00-.813 0l-7.94 4.806a.768.768 0 00-.374.65v2.557c0 .424.347.768.777.768h.53v5.393h-.53a.777.777 0 00-.731.515L.92 19.104a.756.756 0 00.1.696.795.795 0 00.63.325h17.69a.758.758 0 00.63-.325.755.755 0 00.11-.705zm-3.72-3.062h-1.187V10.64h1.188v5.393zm-8.98 0V10.64h6.249v5.393h-6.25zM3.323 7.749l7.163-4.328L17.65 7.75v1.355H3.323V7.749zm1.307 2.89h1.188v5.394H4.63V10.64zM2.748 18.58l.356-1.02h14.782l.366 1.02H2.748z" fill="#0028D2"/></symbol><symbol id="icon1" viewBox="0 0 21 21" fill="none"><path d="M13.03 17.367c1.854 0 3.363-1.496 3.363-3.334V3.334C16.393 1.495 14.884 0 13.029 0H5.113C3.258 0 1.75 1.495 1.75 3.334v10.699c0 1.838 1.508 3.334 3.363 3.334h7.916zm-9.687-3.334V3.334c0-.966.796-1.755 1.77-1.755h7.916c.975 0 1.771.79 1.771 1.755v10.699c0 .966-.796 1.755-1.77 1.755H5.112c-.974 0-1.77-.79-1.77-1.755zM19.25 2.647v11.47c0 3.315-2.717 6.008-6.061 6.008H4.982a.792.792 0 01-.796-.79c0-.436.356-.789.796-.789h8.207c2.473 0 4.468-1.987 4.468-4.43V2.646c0-.436.356-.789.797-.789.44 0 .796.353.796.79zM9.076 11.014c2.183 0 3.953-1.755 3.953-3.919s-1.77-3.919-3.953-3.919-3.953 1.755-3.953 3.92c0 .89.309 1.755.87 2.451a3.944 3.944 0 003.083 1.467zm0-6.259c1.302 0 2.36 1.05 2.36 2.34a2.352 2.352 0 01-2.36 2.34 2.371 2.371 0 01-1.846-.872 2.311 2.311 0 01-.515-1.458c0-1.3 1.059-2.35 2.361-2.35zm3.213 8.479c0 .437-.356.79-.796.79H6.659a.792.792 0 01-.796-.79c0-.437.356-.79.796-.79h4.834c.44 0 .796.353.796.79z" fill="#0028D2"/></symbol><symbol id="i-ruble" viewBox="0 0 19 19"><path fill-rule="evenodd" clip-rule="evenodd" d="M9.5 17.4a7.9 7.9 0 100-15.8 7.9 7.9 0 000 15.8zm0 1.6a9.5 9.5 0 100-19 9.5 9.5 0 000 19z"/><path d="M7.018 13.357c0 .355.325.643.727.643.401 0 .727-.288.727-.643v-.964h2.182c.402 0 .727-.288.727-.643 0-.355-.325-.643-.727-.643H8.472v-.964h2.182c1.604 0 2.909-1.154 2.909-2.572 0-1.417-1.305-2.571-2.91-2.571H7.746c-.402 0-.727.288-.727.643v5.464H6.29c-.401 0-.727.288-.727.643 0 .355.326.643.727.643h.728v.964zm5.09-5.786c0 .71-.652 1.286-1.454 1.286H8.472V6.286h2.182c.802 0 1.454.576 1.454 1.285z"/></symbol><symbol id="i-calendar" viewBox="0 0 21 21"><g clip-path="url(#clip0)"><path fill-rule="evenodd" clip-rule="evenodd" d="M17 4.725H4a2.4 2.4 0 00-2.4 2.4v9a2.4 2.4 0 002.4 2.4h13a2.4 2.4 0 002.4-2.4v-9a2.4 2.4 0 00-2.4-2.4zm-13-1.6a4 4 0 00-4 4v9a4 4 0 004 4h13a4 4 0 004-4v-9a4 4 0 00-4-4H4z"/><path d="M2 2.125a1 1 0 112 0v3a1 1 0 01-2 0v-3zm5 0a1 1 0 012 0v3a1 1 0 11-2 0v-3zm5 0a1 1 0 112 0v3a1 1 0 01-2 0v-3zm5 0a1 1 0 112 0v3a1 1 0 11-2 0v-3zM5.99 11.35c0 .566-.46 1.025-1.026 1.025-1.36-.054-1.36-1.997 0-2.05.567 0 1.026.458 1.026 1.025zm2.502-1.026c-.567 0-1.026.46-1.026 1.026.054 1.36 1.997 1.36 2.051 0 0-.567-.459-1.026-1.025-1.026zm3.527 0c-.566 0-1.025.46-1.025 1.026.054 1.36 1.997 1.36 2.05 0 0-.567-.459-1.026-1.025-1.026zm-7.055 3.528c-.566 0-1.025.459-1.025 1.025.054 1.36 1.997 1.36 2.05 0 0-.566-.458-1.025-1.025-1.025zm3.528 0c-.567 0-1.026.459-1.026 1.025.054 1.36 1.997 1.36 2.051 0 0-.566-.459-1.025-1.025-1.025zm3.527 0c-.566 0-1.025.459-1.025 1.025.054 1.36 1.997 1.36 2.05 0 0-.566-.459-1.025-1.025-1.025zm3.527 0c-.566 0-1.025.459-1.025 1.025.054 1.36 1.997 1.36 2.05 0 0-.566-.458-1.025-1.025-1.025zm1.067-6.727H3.816c-1.088.043-1.088 1.598 0 1.64h12.797c1.088-.043 1.087-1.597 0-1.64zm-1.067 3.2c-.566 0-1.025.458-1.025 1.025.054 1.36 1.997 1.36 2.05 0 0-.567-.458-1.026-1.025-1.026z"/></g></symbol><symbol id="i-wallet" viewBox="0 0 19 19"><path d="M17.424 5.64c.37 0 .671-.3.671-.67v-.706a3.364 3.364 0 00-3.36-3.36S4.21.907 4.183.91a3.428 3.428 0 00-2.35 1.054A3.31 3.31 0 00.907 4.38l-.002 9.684a4.036 4.036 0 004.031 4.031h9.8a3.364 3.364 0 003.36-3.36V9.639a3.364 3.364 0 00-3.36-3.36H4.261A2.01 2.01 0 012.25 4.36a1.979 1.979 0 01.554-1.47c.388-.407.934-.64 1.496-.64l10.435-.002a2.02 2.02 0 012.017 2.016v.705c0 .371.3.672.672.672zM4.262 7.622h10.473a2.02 2.02 0 012.017 2.017v5.098a2.02 2.02 0 01-2.017 2.017H4.936a2.691 2.691 0 01-2.688-2.689V6.953a3.35 3.35 0 002.014.668zm11.147 4.566a.84.84 0 01-.84.84c-1.113-.045-1.112-1.635 0-1.68a.84.84 0 01.84.84zm0-7.923c0-.37-.3-.671-.671-.671H4.262c-.89.035-.89 1.308 0 1.343h10.476c.37 0 .671-.3.671-.672z"/></symbol><symbol id="i-update" viewBox="0 0 20 20" fill="none"><path fill-rule="evenodd" clip-rule="evenodd" d="M17.662 7.434l.903-1.266a.804.804 0 011.087-.199c.36.235.46.713.208 1.065l-2.044 2.863a.795.795 0 01-.76.32.806.806 0 01-.327-.122l-3.033-1.976a.746.746 0 01-.208-1.064.803.803 0 011.087-.2l1.582 1.032c-.726-2.507-3.138-4.365-6.003-4.365-1.668 0-3.232.62-4.408 1.744a.806.806 0 01-1.106 0 .744.744 0 010-1.083C6.114 2.774 8.073 2 10.154 2c3.559 0 6.58 2.297 7.508 5.434zM1.615 13.116l.957-1.226c.792 3.174 3.71 5.601 7.265 5.756 2.078.09 4.07-.598 5.603-1.94a.744.744 0 00.047-1.083.806.806 0 00-1.104-.048c-1.224 1.072-2.814 1.623-4.48 1.55C7.041 16 4.711 14.04 4.095 11.504l1.536 1.098a.803.803 0 001.094-.15.746.746 0 00-.161-1.073L3.62 9.273a.805.805 0 00-1.095.15L.36 12.195a.746.746 0 00.16 1.072.803.803 0 001.095-.151z" fill="#fff"/></symbol><symbol id="i-trash" viewBox="0 0 25 25"><path d="M21.75 5.167h-4.583v-2.75a.916.916 0 00-.917-.917H8.917A.916.916 0 008 2.417v2.75H3.417a.916.916 0 100 1.833h.916v13.75a2.753 2.753 0 002.75 2.75h11a2.753 2.753 0 002.75-2.75V7h.917a.916.916 0 100-1.833zM9.833 3.333h5.5v1.834h-5.5V3.333zM19 20.75c0 .505-.41.917-.917.917h-11a.918.918 0 01-.916-.917V7H19v13.75z"/><path d="M9.833 8.833a.916.916 0 00-.916.917V18a.916.916 0 101.833 0V9.75a.916.916 0 00-.917-.917zm5.5 0a.916.916 0 00-.916.917V18a.916.916 0 101.833 0V9.75a.916.916 0 00-.917-.917z"/></symbol><symbol id="i-clock" viewBox="0 0 21 21"><path fill-rule="evenodd" clip-rule="evenodd" d="M10.5.044C4.725.044.044 4.725.044 10.5c0 5.775 4.681 10.456 10.456 10.456 5.775 0 10.456-4.681 10.456-10.456C20.956 4.725 16.275.044 10.5.044zM1.706 10.5a8.794 8.794 0 1117.588 0 8.794 8.794 0 01-17.588 0zm8.287-5.39a.831.831 0 00-.83.83v5.067a.83.83 0 00.37.691l3.039 2.027a.831.831 0 00.922-1.384l-2.67-1.78v-4.62a.831.831 0 00-.83-.832z"/></symbol><symbol id="i-place" viewBox="0 0 24 24"><path d="M19.966 4.173C18.134 1.52 15.23 0 12 0 8.77 0 5.866 1.521 4.034 4.173 2.21 6.81 1.789 10.15 2.905 13.103c.299.805.773 1.588 1.407 2.322l7.049 8.28a.839.839 0 001.278 0l7.047-8.278c.636-.738 1.11-1.52 1.406-2.32 1.118-2.956.697-6.296-1.126-8.934zm-.445 8.347c-.229.617-.601 1.227-1.107 1.813l-.004.005L12 21.867l-6.414-7.534c-.506-.586-.879-1.196-1.11-1.819-.922-2.44-.572-5.202.938-7.387C6.928 2.935 9.329 1.678 12 1.678c2.67 0 5.07 1.257 6.585 3.45 1.51 2.184 1.86 4.946.936 7.392z"/><path d="M12 4.979a4.705 4.705 0 00-4.699 4.7 4.705 4.705 0 004.7 4.699 4.705 4.705 0 004.699-4.7A4.705 4.705 0 0012 4.979zm0 7.72a3.024 3.024 0 01-3.02-3.02A3.024 3.024 0 0112 6.656a3.024 3.024 0 013.022 3.021A3.025 3.025 0 0112 12.7z"/></symbol><symbol id="i-phone-call" viewBox="0 0 25 25"><g clip-path="url(#clip0)"><path d="M21.377 3.275A11.109 11.109 0 0013.47 0a.886.886 0 100 1.772c2.513 0 4.876.979 6.653 2.756a9.348 9.348 0 012.756 6.654.886.886 0 101.772 0c0-2.987-1.162-5.795-3.274-7.907z"/><path d="M17.732 11.182a.886.886 0 101.772 0 6.042 6.042 0 00-6.034-6.034.886.886 0 000 1.772 4.268 4.268 0 014.262 4.262zM15.771 15.7c-1.35-.07-2.038.934-2.368 1.417a.886.886 0 101.463 1c.39-.57.566-.66.806-.648.766.09 3.787 2.303 4.089 2.995.076.204.073.404-.008.647-.317.94-.842 1.602-1.519 1.912-.642.295-1.43.268-2.277-.077-3.163-1.29-5.927-3.088-8.214-5.348l-.003-.003c-2.254-2.284-4.05-5.045-5.338-8.203-.344-.848-.371-1.636-.077-2.278.31-.676.972-1.201 1.912-1.518.244-.082.443-.084.645-.009.695.304 2.908 3.324 2.997 4.082.013.248-.078.425-.647.814a.886.886 0 101 1.463c.482-.33 1.486-1.016 1.417-2.37-.077-1.416-2.83-5.165-4.146-5.649-.586-.218-1.201-.222-1.83-.01-1.417.477-2.44 1.327-2.958 2.459C.21 7.474.227 8.748.76 10.06c1.378 3.38 3.305 6.338 5.729 8.791a.687.687 0 00.018.018c2.451 2.419 5.405 4.343 8.78 5.718.677.275 1.343.413 1.98.413.599 0 1.172-.122 1.705-.366 1.132-.519 1.982-1.541 2.46-2.959.21-.628.207-1.243-.01-1.825-.485-1.32-4.234-4.073-5.652-4.15z"/></g></symbol><symbol id="i-mail" viewBox="0 0 24 24"><path d="M11.997 7.089a4.916 4.916 0 00-4.91 4.909 4.917 4.917 0 004.91 4.909 4.9 4.9 0 003.711-1.7c.67 1.095 1.753 1.7 3.164 1.7 3.925 0 3.928-3.69 3.928-4.906v-.003a10.75 10.75 0 00-3.039-7.51 10.738 10.738 0 00-7.585-3.286 10.8 10.8 0 00-7.69 3.038C.206 8.38.092 15.228 4.235 19.51a10.734 10.734 0 007.586 3.288c.06.002.121.002.182.002 2.82 0 5.476-1.076 7.506-3.04a.981.981 0 10-1.365-1.412c-1.7 1.642-3.923 2.569-6.292 2.486a8.771 8.771 0 01-6.206-2.69c-3.391-3.5-3.3-9.106.203-12.493 1.697-1.641 3.978-2.488 6.292-2.488a8.792 8.792 0 016.207 2.69 8.785 8.785 0 012.488 6.141v.003c0 2.2-.495 2.945-1.964 2.945-1.302 0-1.963-.99-1.964-2.942v-.003a4.915 4.915 0 00-4.91-4.908zm0 7.854a2.95 2.95 0 01-2.946-2.945 2.95 2.95 0 012.946-2.945 2.95 2.95 0 012.946 2.945 2.95 2.95 0 01-2.946 2.945z"/></symbol><symbol id="i-vk" viewBox="0 0 24 14"><path d="M23.786 12.367c-.064-.108-.463-.975-2.384-2.757-2.01-1.866-1.74-1.563.681-4.79 1.475-1.965 2.065-3.165 1.88-3.678-.175-.489-1.26-.36-1.26-.36l-3.606.021s-.267-.036-.467.083c-.193.117-.318.387-.318.387s-.571 1.52-1.333 2.814c-1.607 2.728-2.25 2.872-2.513 2.703-.61-.395-.458-1.587-.458-2.433 0-2.645.4-3.748-.781-4.033-.393-.094-.681-.157-1.685-.168-1.287-.013-2.377.005-2.994.306-.411.201-.728.65-.534.676.238.031.778.145 1.065.535.37.503.357 1.634.357 1.634s.213 3.112-.496 3.5c-.488.265-1.156-.277-2.588-2.753-.734-1.268-1.289-2.67-1.289-2.67s-.106-.261-.297-.401a1.485 1.485 0 00-.555-.224L.781.78s-.513.015-.702.24c-.168.2-.013.61-.013.61s2.685 6.282 5.724 9.448c2.789 2.903 5.954 2.713 5.954 2.713h1.434s.434-.048.654-.287c.204-.22.197-.63.197-.63s-.029-1.925.865-2.208c.881-.28 2.012 1.86 3.21 2.683.907.623 1.595.486 1.595.486l3.206-.044s1.677-.104.882-1.423z"/></symbol><symbol id="i-tg" viewBox="0 0 25 25"><path d="M10.19 15.93l-.386 5.424c.552 0 .79-.237 1.077-.522l2.587-2.472 5.36 3.925c.983.548 1.676.26 1.941-.904l3.519-16.487c.313-1.454-.525-2.022-1.483-1.666l-20.68 7.918c-1.412.548-1.39 1.335-.24 1.691l5.287 1.645 12.281-7.685c.578-.382 1.104-.17.671.212l-9.934 8.92z"/></symbol><symbol id="i-youtube" viewBox="0 0 27 20"><path d="M26.317 3.627a3.344 3.344 0 00-2.353-2.353C21.874.702 13.518.702 13.518.702s-8.356 0-10.445.55A3.412 3.412 0 00.72 3.627C.17 5.716.17 10.048.17 10.048s0 4.354.55 6.421a3.345 3.345 0 002.353 2.353c2.111.572 10.446.572 10.446.572s8.356 0 10.445-.55a3.345 3.345 0 002.353-2.353c.55-2.089.55-6.421.55-6.421s.022-4.354-.55-6.443zM10.857 14.05V6.046l6.95 4.002-6.95 4.002z"/></symbol><symbol id="i-link" viewBox="0 0 24 24"><g opacity=".4"><path d="M22.909 1h-8.727c-.603 0-1.091.448-1.091 1s.488 1 1.09 1h6.094L9.047 13.293a.942.942 0 000 1.414c.213.195.492.293.771.293.28 0 .558-.098.771-.293L21.82 4.414V10c0 .552.488 1 1.09 1 .603 0 1.091-.448 1.091-1V2c0-.552-.488-1-1.091-1z"/><path d="M18.546 11c-.603 0-1.091.448-1.091 1v9H2.182V7H12c.603 0 1.091-.448 1.091-1s-.488-1-1.09-1H1.09C.488 5 0 5.448 0 6v16c0 .552.488 1 1.09 1h17.456c.602 0 1.09-.448 1.09-1V12c0-.552-.488-1-1.09-1z"/></g></symbol><symbol id="i-cross" viewBox="0 0 24 24"><path fill-rule="evenodd" clip-rule="evenodd" d="M5.636 19.778a1 1 0 01-1.414-1.414l6.106-6.107-6.621-6.621a1 1 0 111.414-1.414l6.621 6.621 6.622-6.621a1 1 0 111.414 1.414l-6.621 6.621 6.106 6.107a1 1 0 01-1.414 1.414l-6.107-6.106-6.106 6.106z"/></symbol><symbol id="hat" viewBox="0 0 21 21" fill="none"><path d="M20.416 6.432L10.73 3.53a.872.872 0 00-.45 0L.584 6.432A.842.842 0 000 7.238c0 .374.24.699.584.807l2.613.777v6.631c0 .67.43 1.614 2.47 2.273 1.301.413 3.014.649 4.833.649 1.809 0 3.532-.226 4.834-.65 2.038-.658 2.47-1.593 2.47-2.272v-6.63l1.569-.473v9.179c0 .462.364.836.813.836.45 0 .814-.374.814-.836V7.239a.842.842 0 00-.584-.807zm-3.14.806L10.5 9.265 3.723 7.238 10.5 5.212l6.777 2.026zM4.825 9.304l5.446 1.633a.87.87 0 00.45 0l5.456-1.633v6.1c-.067.098-.44.443-1.512.758-1.13.334-2.604.511-4.164.511-1.56 0-3.034-.187-4.164-.511-1.072-.315-1.445-.66-1.512-.758v-6.1z" fill="#0028D2"/></symbol><symbol id="i-warning" viewBox="0 0 20 20" fill="none" xmlns="http://www.w3.org/2000/svg"><g clip-path="url(#clip0)"><path d="M19.6 14.572L12.595 2.436C11.449.43 8.555.43 7.414 2.436L.405 14.572c-1.145 2.005.28 4.496 2.59 4.496h13.992c2.31 0 3.76-2.516 2.615-4.496zM10 16.375c-.61 0-1.115-.506-1.115-1.115 0-.61.506-1.116 1.115-1.116.61 0 1.116.506 1.091 1.144.029.58-.506 1.087-1.09 1.087zm1.017-7.212c-.05.864-.103 1.725-.152 2.59-.025.279-.025.534-.025.81a.84.84 0 01-.84.811.822.822 0 01-.84-.786c-.074-1.346-.152-2.668-.226-4.014-.025-.354-.05-.712-.078-1.066 0-.585.329-1.067.864-1.219a1.12 1.12 0 011.297.634c.078.177.103.354.103.56-.025.564-.078 1.124-.103 1.68z" fill="#EF6700"/></g></symbol><symbol id="i-ok" xmlns="http://www.w3.org/2000/svg" viewBox="0 0 24 24"><circle cx="12" cy="12" r="12" fill="#47bd23"/><path d="M17.7 9.4l-6.2 6.4c-.4.4-1.2.4-1.6 0l-3.5-3.6c-.4-.4-.4-1.2 0-1.6.4-.4 1.2-.4 1.6 0l2.8 2.8 5.4-5.6c.4-.4 1.2-.4 1.6 0 .3.4.3 1.1-.1 1.6z" fill="#fff"/></symbol><symbol id="i-filter" viewBox="0 0 21 20" fill="none"><path fill-rule="evenodd" clip-rule="evenodd" d="M12.39 15.834H2.861c-.383 0-.694.373-.694.833 0 .46.311.834.694.834h9.529a1.666 1.666 0 002.887 0h2.862c.384 0 .695-.374.695-.834 0-.46-.311-.833-.695-.833h-2.862a1.666 1.666 0 00-2.887 0zM5.723 9.167H2.861c-.383 0-.694.374-.694.834 0 .46.311.833.694.833h2.862a1.666 1.666 0 002.888 0h9.528c.384 0 .695-.373.695-.833 0-.46-.311-.834-.695-.834H8.611a1.666 1.666 0 00-2.888 0zM2.861 2.501h9.529a1.666 1.666 0 012.887 0h2.862c.384 0 .695.373.695.833 0 .46-.311.833-.695.833h-2.862a1.666 1.666 0 01-2.887 0H2.861c-.383 0-.694-.373-.694-.833 0-.46.311-.833.694-.833z" fill="#fff"/></symbol><symbol id="i-language-de" viewBox="0 0 74 74" fill="none"><g filter="url(#filter0_ddd_2945:995)"><g clip-path="url(#clip0_2945:995)"><path d="M37 63c14.912 0 27-12.088 27-27S51.912 9 37 9 10 21.088 10 36s12.088 27 27 27z" fill="#fff"/><path d="M11.68 45.392C15.493 55.673 25.39 63 37 63c11.609 0 21.505-7.327 25.32-17.608L37 43.044l-25.32 2.348z" fill="#FFDA44"/><path d="M37 9c-11.61 0-21.506 7.327-25.32 17.609L37 28.956l25.32-2.347C58.505 16.327 48.61 9 37 9z" fill="#000"/><path d="M11.68 26.608A26.942 26.942 0 0010 36c0 3.302.594 6.466 1.68 9.39h50.64A26.941 26.941 0 0064 36a26.94 26.94 0 00-1.68-9.392H11.68z" fill="#D80027"/></g><path d="M37 60c-13.255 0-24-10.745-24-24H7c0 16.569 13.431 30 30 30v-6zm24-24c0 13.255-10.745 24-24 24v6c16.569 0 30-13.431 30-30h-6zM37 12c13.255 0 24 10.745 24 24h6C67 19.431 53.569 6 37 6v6zm0-6C20.431 6 7 19.431 7 36h6c0-13.255 10.745-24 24-24V6z" fill="#fff"/></g></symbol><symbol id="i-language-en" viewBox="0 0 74 74" fill="none" xmlns="http://www.w3.org/2000/svg"><g filter="url(#filter0_ddd_2945:886)"><path d="M37 63c14.912 0 27-12.088 27-27S51.912 9 37 9 10 21.088 10 36s12.088 27 27 27z" fill="#fff"/><path d="M15.582 19.562a26.902 26.902 0 00-4.652 9.395h14.046l-9.394-9.395zm47.488 9.395a26.905 26.905 0 00-4.651-9.395l-9.395 9.395H63.07zM10.93 43.043a26.904 26.904 0 004.652 9.394l9.394-9.394H10.93zm42.508-28.462a26.903 26.903 0 00-9.395-4.651v14.046l9.395-9.395zM20.562 57.418a26.921 26.921 0 009.395 4.652V48.024l-9.395 9.394zM29.957 9.93a26.904 26.904 0 00-9.395 4.651l9.395 9.395V9.93zm14.087 52.14a26.904 26.904 0 009.394-4.652l-9.395-9.394V62.07zm4.98-19.027l9.395 9.395a26.9 26.9 0 004.65-9.395H49.025z" fill="#0052B4"/><path d="M63.772 32.478h-23.25V9.228a27.27 27.27 0 00-7.044 0v23.25h-23.25a27.266 27.266 0 000 7.044h23.25v23.25a27.282 27.282 0 007.044 0v-23.25h23.25a27.282 27.282 0 000-7.044z" fill="#D80027"/><path d="M44.044 43.044l12.048 12.049a27.066 27.066 0 001.587-1.734L47.364 43.044h-3.32zm-14.087 0l-12.05 12.048a27.064 27.064 0 001.734 1.587l10.315-10.315v-3.32zm-.001-14.087l-12.048-12.05a27.091 27.091 0 00-1.587 1.733l10.315 10.316h3.32zm14.088 0l12.048-12.049a27.004 27.004 0 00-1.733-1.587L44.042 25.636v3.32z" fill="#D80027"/><path d="M37 60c-13.255 0-24-10.745-24-24H7c0 16.569 13.431 30 30 30v-6zm24-24c0 13.255-10.745 24-24 24v6c16.569 0 30-13.431 30-30h-6zM37 12c13.255 0 24 10.745 24 24h6C67 19.431 53.569 6 37 6v6zm0-6C20.431 6 7 19.431 7 36h6c0-13.255 10.745-24 24-24V6z" fill="#fff"/></g></symbol><symbol id="i-language-fr" viewBox="0 0 74 74" fill="none"><g filter="url(#filter0_ddd_2945:926)"><g clip-path="url(#clip0_2945:926)"><path d="M37 63c14.912 0 27-12.088 27-27S51.912 9 37 9 10 21.088 10 36s12.088 27 27 27z" fill="#fff"/><path d="M27.608 10.68C17.327 14.493 10 24.39 10 36s7.327 21.506 17.608 25.32L29.956 36l-2.348-25.32z" fill="#D80027"/><path d="M64 36c0-11.609-7.327-21.506-17.609-25.32L44.044 36l2.347 25.32C56.673 57.507 64 47.61 64 36z" fill="#0052B4"/><path d="M46.392 10.68A26.943 26.943 0 0037 9c-3.302 0-6.466.594-9.39 1.68v50.64A26.944 26.944 0 0037 63c3.303 0 6.467-.595 9.392-1.68V10.68z" fill="#fff"/></g><path d="M37 60c-13.255 0-24-10.745-24-24H7c0 16.569 13.431 30 30 30v-6zm24-24c0 13.255-10.745 24-24 24v6c16.569 0 30-13.431 30-30h-6zM37 12c13.255 0 24 10.745 24 24h6C67 19.431 53.569 6 37 6v6zm0-6C20.431 6 7 19.431 7 36h6c0-13.255 10.745-24 24-24V6z" fill="#fff"/></g></symbol><symbol id="i-asket" viewBox="0 0 54 16" fill="none" xmlns="http://www.w3.org/2000/svg"><path d="M45.955 9.026l-.024-.15a6.17 6.17 0 00-2.948-4.409c-.027-.023-.056-.04-.077-.056a.233.233 0 00-.061-.029 6.136 6.136 0 00-3.052-.812c-3.415 0-6.193 2.786-6.193 6.212 0 1.997.969 3.88 2.593 5.032l.053.039c.094.067.188.14.282.185.061.047.132.088.2.13l.079.046.161.08c.076.038.147.076.214.103a6.028 6.028 0 002.608.585 6.212 6.212 0 006.097-5.02l.03-.156H43.67l-.032.085c-.115.297-.256.6-.409.87-.713 1.221-1.744 2.145-2.895 2.603-.943.389-1.915.418-2.737.083a2.11 2.11 0 01-.367-.194l-.033-.015a.327.327 0 01-.064-.038c-1.483-.93-2.018-3.047-1.313-5.177h10.135v.003zm-9.58-1.22c.696-1.215 1.72-2.145 2.884-2.612a4.107 4.107 0 011.524-.306c.464 0 .864.076 1.219.232l.305.153.033.015a.243.243 0 00.046.026.567.567 0 00.094.053c.879.565 1.428 1.533 1.56 2.739h-7.824c.05-.103.106-.203.159-.3zM9.67 5.888a3.368 3.368 0 00-1.644-1.724c-.763-.382-1.68-.57-2.743-.57-1.324 0-2.393.294-3.207.882C1.263 5.064.72 5.873.435 6.903l1.835.555c.217-.717.593-1.24 1.125-1.567.532-.327 1.154-.491 1.865-.491 1.072 0 1.827.253 2.261.756.39.452.6 1.123.626 2.005l-1.301.177a70.29 70.29 0 00-2.097.309c-.687.111-1.313.244-1.868.397a5.206 5.206 0 00-1.539.717 3.137 3.137 0 00-.995 1.133c-.232.45-.347.982-.347 1.6 0 .632.15 1.212.452 1.74.3.53.746.957 1.337 1.28.59.324 1.324.486 2.2.486 1.13 0 2.093-.242 2.889-.724a4.543 4.543 0 001.457-1.432v1.83h1.718V8.4c0-.465-.02-.91-.065-1.333a3.863 3.863 0 00-.317-1.18zm-1.738 5.776a3.204 3.204 0 01-.608 1.345 3.398 3.398 0 01-1.233.99c-.511.25-1.113.377-1.81.377-.557 0-1.01-.091-1.353-.27-.344-.183-.6-.418-.76-.71a1.825 1.825 0 01-.244-.914c0-.362.085-.67.255-.92.17-.25.394-.457.673-.621.279-.165.578-.297.895-.397.435-.124.923-.23 1.463-.315.54-.088 1.116-.17 1.727-.25.39-.05.79-.109 1.186-.168-.003.186-.009.398-.017.645a5.186 5.186 0 01-.174 1.208zm11.982-1.953c-.596-.308-1.415-.594-2.45-.855-.918-.233-1.62-.439-2.102-.621-.482-.182-.81-.37-.99-.57a1.073 1.073 0 01-.267-.736c0-.5.238-.9.71-1.197.477-.297 1.093-.435 1.854-.415.796.02 1.454.215 1.968.583.514.367.82.861.913 1.485l1.976-.359a3.372 3.372 0 00-.766-1.812c-.432-.517-.998-.92-1.7-1.203-.702-.282-1.501-.423-2.391-.423-.899 0-1.686.144-2.364.43-.678.285-1.204.688-1.58 1.202-.376.515-.564 1.118-.564 1.806 0 .565.126 1.044.382 1.435.252.392.678.736 1.272 1.03.593.294 1.41.58 2.443.856.957.261 1.67.482 2.147.664.476.183.787.377.94.583.152.206.229.473.229.8 0 .573-.23 1.026-.69 1.359-.462.335-1.09.5-1.886.5-.849 0-1.557-.189-2.13-.562-.572-.374-.939-.88-1.098-1.518l-1.976.315c.203 1.103.752 1.962 1.647 2.573.896.612 2.042.921 3.44.921 1.462 0 2.61-.323 3.444-.973.834-.65 1.252-1.542 1.252-2.671 0-.609-.127-1.124-.382-1.541-.256-.418-.682-.777-1.28-1.086zm13.081-5.793h-2.51l-4.923 5.658V0h-1.956l-.011 15.67h1.967v-5.658L30.9 15.67h2.704l-5.791-5.877 5.183-5.876zm20.919 1.6v-1.6h-3.542V0h-1.935v11.232c0 .603.008 1.142.026 1.615.018.476.144.944.376 1.409.267.538.67.93 1.201 1.18.532.25 1.137.387 1.815.414a8.635 8.635 0 002.059-.18v-1.664c-.805.123-1.492.144-2.059.065-.57-.08-.984-.353-1.245-.815a1.92 1.92 0 01-.223-.883c-.012-.34-.018-.75-.018-1.229V5.518h3.545zM43.535 0H36.72v1.685h6.816V0z" fill="#fff"/></symbol><filter id="filter0_ddd_2945:995" x="0" y="0" width="74" height="74" filterUnits="userSpaceOnUse" color-interpolation-filters="sRGB"><feFlood flood-opacity="0" result="BackgroundImageFix"/><feColorMatrix in="SourceAlpha" values="0 0 0 0 0 0 0 0 0 0 0 0 0 0 0 0 0 0 127 0" result="hardAlpha"/><feOffset dy="1"/><feGaussianBlur stdDeviation="5"/><feColorMatrix values="0 0 0 0 0.392157 0 0 0 0 0.47451 0 0 0 0 0.541176 0 0 0 0.08 0"/><feBlend in2="BackgroundImageFix" result="effect1_dropShadow_2945:995"/><feColorMatrix in="SourceAlpha" values="0 0 0 0 0 0 0 0 0 0 0 0 0 0 0 0 0 0 127 0" result="hardAlpha"/><feOffset dy="4"/><feGaussianBlur stdDeviation="2.5"/><feColorMatrix values="0 0 0 0 0.392157 0 0 0 0 0.47451 0 0 0 0 0.541176 0 0 0 0.04 0"/><feBlend in2="effect1_dropShadow_2945:995" result="effect2_dropShadow_2945:995"/><feColorMatrix in="SourceAlpha" values="0 0 0 0 0 0 0 0 0 0 0 0 0 0 0 0 0 0 127 0" result="hardAlpha"/><feOffset dy="2"/><feGaussianBlur stdDeviation="2"/><feColorMatrix values="0 0 0 0 0.392157 0 0 0 0 0.47451 0 0 0 0 0.541176 0 0 0 0.04 0"/><feBlend in2="effect2_dropShadow_2945:995" result="effect3_dropShadow_2945:995"/><feBlend in="SourceGraphic" in2="effect3_dropShadow_2945:995" result="shape"/></filter><filter id="filter0_ddd_2945:886" x="0" y="0" width="74" height="74" filterUnits="userSpaceOnUse" color-interpolation-filters="sRGB"><feFlood flood-opacity="0" result="BackgroundImageFix"/><feColorMatrix in="SourceAlpha" values="0 0 0 0 0 0 0 0 0 0 0 0 0 0 0 0 0 0 127 0" result="hardAlpha"/><feOffset dy="1"/><feGaussianBlur stdDeviation="5"/><feColorMatrix values="0 0 0 0 0.392157 0 0 0 0 0.47451 0 0 0 0 0.541176 0 0 0 0.08 0"/><feBlend in2="BackgroundImageFix" result="effect1_dropShadow_2945:886"/><feColorMatrix in="SourceAlpha" values="0 0 0 0 0 0 0 0 0 0 0 0 0 0 0 0 0 0 127 0" result="hardAlpha"/><feOffset dy="4"/><feGaussianBlur stdDeviation="2.5"/><feColorMatrix values="0 0 0 0 0.392157 0 0 0 0 0.47451 0 0 0 0 0.541176 0 0 0 0.04 0"/><feBlend in2="effect1_dropShadow_2945:886" result="effect2_dropShadow_2945:886"/><feColorMatrix in="SourceAlpha" values="0 0 0 0 0 0 0 0 0 0 0 0 0 0 0 0 0 0 127 0" result="hardAlpha"/><feOffset dy="2"/><feGaussianBlur stdDeviation="2"/><feColorMatrix values="0 0 0 0 0.392157 0 0 0 0 0.47451 0 0 0 0 0.541176 0 0 0 0.04 0"/><feBlend in2="effect2_dropShadow_2945:886" result="effect3_dropShadow_2945:886"/><feBlend in="SourceGraphic" in2="effect3_dropShadow_2945:886" result="shape"/></filter><filter id="filter0_ddd_2945:926" x="0" y="0" width="74" height="74" filterUnits="userSpaceOnUse" color-interpolation-filters="sRGB"><feFlood flood-opacity="0" result="BackgroundImageFix"/><feColorMatrix in="SourceAlpha" values="0 0 0 0 0 0 0 0 0 0 0 0 0 0 0 0 0 0 127 0" result="hardAlpha"/><feOffset dy="1"/><feGaussianBlur stdDeviation="5"/><feColorMatrix values="0 0 0 0 0.392157 0 0 0 0 0.47451 0 0 0 0 0.541176 0 0 0 0.08 0"/><feBlend in2="BackgroundImageFix" result="effect1_dropShadow_2945:926"/><feColorMatrix in="SourceAlpha" values="0 0 0 0 0 0 0 0 0 0 0 0 0 0 0 0 0 0 127 0" result="hardAlpha"/><feOffset dy="4"/><feGaussianBlur stdDeviation="2.5"/><feColorMatrix values="0 0 0 0 0.392157 0 0 0 0 0.47451 0 0 0 0 0.541176 0 0 0 0.04 0"/><feBlend in2="effect1_dropShadow_2945:926" result="effect2_dropShadow_2945:926"/><feColorMatrix in="SourceAlpha" values="0 0 0 0 0 0 0 0 0 0 0 0 0 0 0 0 0 0 127 0" result="hardAlpha"/><feOffset dy="2"/><feGaussianBlur stdDeviation="2"/><feColorMatrix values="0 0 0 0 0.392157 0 0 0 0 0.47451 0 0 0 0 0.541176 0 0 0 0.04 0"/><feBlend in2="effect2_dropShadow_2945:926" result="effect3_dropShadow_2945:926"/><feBlend in="SourceGraphic" in2="effect3_dropShadow_2945:926" result="shape"/></filter><clipPath id="clip0_2945:995"><path d="M10 36C10 21.088 22.088 9 37 9s27 12.088 27 27-12.088 27-27 27-27-12.088-27-27z" fill="#fff"/></clipPath><clipPath id="clip0_2945:926"><path d="M10 36C10 21.088 22.088 9 37 9s27 12.088 27 27-12.088 27-27 27-27-12.088-27-27z" fill="#fff"/></clipPath></defs></svg>